<svg width="179" height="85" viewBox="0 0 179 85" fill="none" xmlns="http://www.w3.org/2000/svg">
<g filter="url(#filter0_d_419_4)">
<rect width="162.976" height="69.4548" rx="10" transform="matrix(1.00046 -0.000968531 0.00190473 0.999095 3.90839 3.62808)" fill="white"/>
<rect x="1.50355" y="1.49719" width="159.976" height="66.4548" rx="8.5" transform="matrix(1.00046 -0.000968531 0.00190473 0.999095 3.90484 3.63089)" stroke="#CCCCCC" stroke-width="3"/>
</g>
<path d="M22.4785 43.5679L22.3631 28.2956L25.5399 28.2716L25.5832 34.0136L25.6802 34.0129C25.8171 33.7036 26.016 33.3889 26.2771 33.0687C26.5431 32.7435 26.8891 32.4724 27.315 32.2554C27.7459 32.0334 28.282 31.92 28.9233 31.9151C29.7585 31.9088 30.5307 32.1218 31.24 32.5539C31.9492 32.9811 32.5184 33.6306 32.9476 34.5024C33.3767 35.3692 33.5963 36.4588 33.6062 37.7713C33.6158 39.0489 33.4177 40.1293 33.0117 41.0124C32.6107 41.8904 32.0589 42.5583 31.3563 43.016C30.6587 43.4688 29.875 43.6984 29.0049 43.705C28.3885 43.7097 27.8632 43.6117 27.4292 43.4111C27.0001 43.2105 26.6477 42.9572 26.3719 42.651C26.0961 42.3399 25.8849 42.0258 25.7383 41.7087L25.5967 41.7097L25.6105 43.5442L22.4785 43.5679ZM25.5449 37.8173C25.55 38.4984 25.649 39.0917 25.8417 39.5974C26.0345 40.103 26.3109 40.4962 26.671 40.7769C27.031 41.0526 27.4671 41.1885 27.9791 41.1846C28.4962 41.1807 28.9326 41.0357 29.2884 40.7496C29.6441 40.4586 29.9121 40.0588 30.0922 39.5504C30.2772 39.0369 30.3672 38.447 30.3622 37.7809C30.3572 37.1197 30.2608 36.5387 30.0731 36.038C29.8854 35.5372 29.6115 35.1465 29.2514 34.8659C28.8913 34.5852 28.4502 34.4468 27.9282 34.4508C27.4112 34.4547 26.9748 34.5947 26.6189 34.8709C26.268 35.147 26 35.5368 25.8148 36.0403C25.6297 36.5439 25.5397 37.1362 25.5449 37.8173Z" fill="white"/>
<path d="M37.9287 43.4511L37.8132 28.1788L43.9281 28.1326C45.0517 28.1241 45.9901 28.2836 46.7433 28.611C47.4965 28.9384 48.0642 29.3965 48.4465 29.9852C48.8288 30.569 49.0228 31.2437 49.0286 32.0093C49.0331 32.6059 48.9177 33.1313 48.6825 33.5855C48.4473 34.0347 48.122 34.4051 47.7065 34.6966C47.296 34.9831 46.8253 35.188 46.2942 35.3113L46.2954 35.4605C46.8772 35.4809 47.4228 35.6409 47.9322 35.9403C48.4466 36.2397 48.8649 36.6616 49.1872 37.2061C49.5095 37.7455 49.6734 38.3906 49.6791 39.1413C49.6852 39.9517 49.4893 40.6765 49.0915 41.3159C48.6985 41.9503 48.1132 42.4544 47.3354 42.8282C46.5577 43.202 45.5971 43.3932 44.4537 43.4018L37.9287 43.4511ZM41.1377 40.7869L43.77 40.767C44.6699 40.7602 45.3248 40.5837 45.7349 40.2376C46.1449 39.8864 46.3477 39.4225 46.3433 38.8459C46.3401 38.4233 46.2354 38.0512 46.0291 37.7296C45.8228 37.408 45.5301 37.1566 45.1509 36.9755C44.7766 36.7944 44.331 36.7058 43.814 36.7097L41.107 36.7302L41.1377 40.7869ZM41.0905 34.5452L43.4842 34.5271C43.9267 34.5238 44.3189 34.4438 44.6607 34.2871C45.0075 34.1253 45.2793 33.8996 45.476 33.6097C45.6776 33.3198 45.7769 32.9735 45.7739 32.5709C45.7697 32.019 45.57 31.5756 45.1747 31.2405C44.7843 30.9053 44.2312 30.7405 43.5153 30.7459L41.0619 30.7644L41.0905 34.5452ZM60.9319 35.7451L60.951 38.2656L53.986 38.3183L53.9669 35.7977L60.9319 35.7451ZM65.8554 43.2401L65.74 27.9678L68.9167 27.9438L68.9601 33.6858L69.0571 33.6851C69.1939 33.3758 69.3929 33.0611 69.654 32.7409C69.92 32.4157 70.266 32.1446 70.6919 31.9276C71.1228 31.7056 71.6589 31.5922 72.3002 31.5873C73.1354 31.581 73.9076 31.794 74.6169 32.2261C75.3261 32.6533 75.8953 33.3028 76.3245 34.1746C76.7536 35.0414 76.9732 36.131 76.9831 37.4435C76.9927 38.7211 76.7946 39.8015 76.3886 40.6846C75.9875 41.5626 75.4358 42.2305 74.7332 42.6882C74.0356 43.141 73.2518 43.3706 72.3818 43.3772C71.7654 43.3819 71.2401 43.2839 70.8061 43.0833C70.377 42.8827 70.0246 42.6294 69.7488 42.3232C69.473 42.0121 69.2618 41.698 69.1152 41.3809L68.9735 41.3819L68.9874 43.2164L65.8554 43.2401ZM68.9218 37.4895C68.9269 38.1706 69.0259 38.7639 69.2186 39.2696C69.4113 39.7753 69.6878 40.1684 70.0478 40.4491C70.4079 40.7248 70.844 40.8607 71.356 40.8568C71.873 40.8529 72.3095 40.7079 72.6653 40.4218C73.021 40.1308 73.289 39.731 73.4691 39.2226C73.6541 38.7091 73.7441 38.1192 73.7391 37.4531C73.7341 36.7919 73.6377 36.2109 73.45 35.7102C73.2623 35.2094 72.9883 34.8187 72.6283 34.5381C72.2682 34.2574 71.8271 34.119 71.3051 34.123C70.7881 34.1269 70.3516 34.2669 69.9958 34.5431C69.6449 34.8192 69.3768 35.209 69.1917 35.7125C69.0066 36.2161 68.9166 36.8084 68.9218 37.4895ZM81.2459 43.1238L81.1593 31.6696L84.2391 31.6463L84.2542 33.6448L84.3736 33.6439C84.577 32.9314 84.9234 32.3918 85.4128 32.0252C85.9022 31.6536 86.4676 31.4654 87.1089 31.4605C87.268 31.4593 87.4396 31.468 87.6237 31.4865C87.8078 31.505 87.9696 31.5311 88.109 31.5648L88.1303 34.3836C87.9808 34.34 87.7742 34.3018 87.5105 34.269C87.2467 34.2362 87.0055 34.2206 86.7867 34.2223C86.3194 34.2258 85.9026 34.3309 85.5362 34.5375C85.1748 34.7391 84.8886 35.0197 84.6775 35.3792C84.4714 35.7387 84.3701 36.1522 84.3737 36.6195L84.4226 43.0998L81.2459 43.1238ZM96.5821 43.2316C95.4238 43.2404 94.4202 43.0018 93.5713 42.5161C92.7274 42.0253 92.0734 41.3391 91.6093 40.4577C91.1452 39.5712 90.9087 38.5414 90.8999 37.3681C90.8909 36.1849 91.1118 35.1491 91.5625 34.2608C92.0131 33.3674 92.6567 32.6715 93.4932 32.173C94.3345 31.6694 95.3344 31.4133 96.4928 31.4045C97.6511 31.3958 98.6522 31.6368 99.4962 32.1276C100.345 32.6134 101.002 33.2995 101.466 34.1859C101.93 35.0674 102.166 36.0997 102.175 37.2829C102.184 38.4562 101.963 39.4895 101.512 40.3828C101.062 41.2712 100.416 41.9672 99.5743 42.4707C98.7379 42.9692 97.7405 43.2229 96.5821 43.2316ZM96.5785 40.7706C97.1054 40.7666 97.5443 40.6142 97.895 40.3132C98.2457 40.0073 98.5085 39.5927 98.6836 39.0693C98.8636 38.5459 98.951 37.9511 98.946 37.2849C98.941 36.6188 98.8445 36.0254 98.6566 35.5048C98.4737 34.9841 98.2046 34.5735 97.8493 34.2729C97.4941 33.9723 97.053 33.824 96.526 33.828C95.994 33.832 95.5478 33.987 95.1871 34.293C94.8315 34.599 94.5637 35.0137 94.3837 35.5371C94.2086 36.0604 94.1236 36.6552 94.1287 37.3214C94.1337 37.9875 94.2277 38.5809 94.4106 39.1016C94.5985 39.6222 94.8725 40.0328 95.2328 40.3333C95.598 40.6289 96.0465 40.7746 96.5785 40.7706ZM112.39 31.4335L112.408 33.8198L105.51 33.872L105.492 31.4857L112.39 31.4335ZM107.037 28.7296L110.214 28.7056L110.294 39.3843C110.297 39.6776 110.343 39.9059 110.434 40.0693C110.525 40.2277 110.65 40.3386 110.809 40.4021C110.974 40.4655 111.163 40.4963 111.377 40.4947C111.526 40.4936 111.675 40.48 111.824 40.4541C111.973 40.4231 112.087 40.3999 112.166 40.3844L112.684 42.7445C112.525 42.7954 112.302 42.8543 112.014 42.9211C111.726 42.9929 111.376 43.0378 110.964 43.0558C110.198 43.0914 109.526 42.9946 108.948 42.7653C108.374 42.5359 107.927 42.1764 107.605 41.6866C107.283 41.1968 107.122 40.5766 107.121 39.8259L107.037 28.7296ZM120.018 36.2084L120.068 42.8304L116.892 42.8544L116.776 27.5821L119.863 27.5588L119.908 33.3977L120.042 33.3967C120.295 32.7187 120.709 32.186 121.283 31.7989C121.856 31.4068 122.578 31.2074 123.448 31.2008C124.244 31.1948 124.938 31.3636 125.533 31.7071C126.132 32.0456 126.598 32.5368 126.931 33.1806C127.269 33.8194 127.439 34.5862 127.441 35.4811L127.496 42.7743L124.319 42.7983L124.268 36.0719C124.268 35.3659 124.085 34.8179 123.719 34.4279C123.358 34.0379 122.854 33.8453 122.208 33.8502C121.775 33.8535 121.393 33.9483 121.062 34.1348C120.735 34.3212 120.478 34.5916 120.292 34.946C120.111 35.2954 120.02 35.7162 120.018 36.2084ZM137.317 42.9238C136.139 42.9327 135.123 42.7017 134.269 42.2309C133.421 41.755 132.764 41.0789 132.3 40.2024C131.836 39.3209 131.6 38.2761 131.59 37.0681C131.581 35.8899 131.802 34.8541 132.253 33.9607C132.704 33.0674 133.342 32.369 134.169 31.8656C135 31.3621 135.978 31.1061 137.101 31.0977C137.857 31.0919 138.561 31.2084 139.214 31.4471C139.872 31.6808 140.447 32.0369 140.938 32.5154C141.433 32.9939 141.821 33.5976 142.1 34.3263C142.379 35.0501 142.522 35.8992 142.529 36.8736L142.536 37.746L132.864 37.8191L132.849 35.8504L139.531 35.8C139.527 35.3426 139.425 34.9382 139.223 34.5867C139.022 34.2352 138.744 33.9614 138.389 33.7652C138.04 33.564 137.634 33.4651 137.171 33.4686C136.689 33.4723 136.262 33.5874 135.891 33.8139C135.525 34.0354 135.239 34.3334 135.033 34.7078C134.827 35.0773 134.723 35.4883 134.722 35.9407L134.736 37.8125C134.74 38.3792 134.848 38.8681 135.06 39.2791C135.277 39.6902 135.58 40.0061 135.969 40.2268C136.359 40.4476 136.82 40.556 137.352 40.552C137.705 40.5493 138.027 40.4972 138.32 40.3955C138.612 40.2939 138.862 40.1428 139.07 39.9424C139.277 39.742 139.434 39.4972 139.541 39.208L142.481 39.3797C142.337 40.0867 142.036 40.7055 141.578 41.236C141.124 41.7614 140.536 42.1736 139.812 42.4724C139.094 42.7662 138.262 42.9166 137.317 42.9238ZM146.746 42.6288L146.659 31.1746L149.739 31.1513L149.754 33.1498L149.874 33.1489C150.077 32.4364 150.423 31.8969 150.913 31.5302C151.402 31.1586 151.968 30.9704 152.609 30.9655C152.768 30.9643 152.94 30.973 153.124 30.9915C153.308 31.01 153.47 31.0361 153.609 31.0698L153.63 33.8887C153.481 33.845 153.274 33.8068 153.011 33.774C152.747 33.7412 152.506 33.7256 152.287 33.7273C151.82 33.7308 151.403 33.8359 151.036 34.0425C150.675 34.2441 150.389 34.5247 150.178 34.8842C149.972 35.2438 149.87 35.6572 149.874 36.1245L149.923 42.6048L146.746 42.6288Z" fill="#181515"/>
<defs>
<filter id="filter0_d_419_4" x="0.927429" y="0.479919" width="177.145" height="83.5305" filterUnits="userSpaceOnUse" color-interpolation-filters="sRGB">
<feFlood flood-opacity="0" result="BackgroundImageFix"/>
<feColorMatrix in="SourceAlpha" type="matrix" values="0 0 0 0 0 0 0 0 0 0 0 0 0 0 0 0 0 0 127 0" result="hardAlpha"/>
<feMorphology radius="3" operator="dilate" in="SourceAlpha" result="effect1_dropShadow_419_4"/>
<feOffset dx="4" dy="4"/>
<feGaussianBlur stdDeviation="2"/>
<feComposite in2="hardAlpha" operator="out"/>
<feColorMatrix type="matrix" values="0 0 0 0 0 0 0 0 0 0 0 0 0 0 0 0 0 0 0.13 0"/>
<feBlend mode="normal" in2="BackgroundImageFix" result="effect1_dropShadow_419_4"/>
<feBlend mode="normal" in="SourceGraphic" in2="effect1_dropShadow_419_4" result="shape"/>
</filter>
</defs>
</svg>
