<svg width="314" height="137" viewBox="0 0 314 137" fill="none" xmlns="http://www.w3.org/2000/svg">
<g filter="url(#filter0_d_407_4)">
<rect width="296.293" height="119.422" rx="10" transform="matrix(1.00051 -0.000915803 0.00201405 0.998878 5.45889 6.23685)" fill="white"/>
<rect x="1.50378" y="1.49694" width="293.293" height="116.422" rx="8.5" transform="matrix(1.00051 -0.000915803 0.00201405 0.998878 5.45511 6.2399)" stroke="#CCCCCC" stroke-width="3"/>
</g>
<path d="M54.7962 55.8119L54.7962 73.9743L51.4742 73.9743L43.5602 62.543L43.427 62.543L43.427 73.9743L39.581 73.9743L39.581 55.8119L42.9563 55.8119L50.8081 67.2344L50.968 67.2344L50.968 55.8119L54.7962 55.8119ZM69.5468 63.5274L69.5468 60.3703L81.8131 60.3703L81.8131 63.5274L69.5468 63.5274ZM69.5468 69.416L69.5468 66.2588L81.8131 66.2588L81.8131 69.416L69.5468 69.416ZM87.4586 64.9729L87.4586 63.1904C88.483 63.1904 89.1936 62.9864 89.5903 62.5785C89.987 62.1705 90.1854 61.5113 90.1854 60.6008L90.1854 58.6409C90.1854 57.5472 90.3364 56.6722 90.6384 56.0159C90.9463 55.3538 91.3727 54.8542 91.9174 54.5172C92.4681 54.1802 93.1195 53.9555 93.8715 53.8432C94.6235 53.7308 95.4466 53.6747 96.3407 53.6747L96.3407 56.4948C95.642 56.4948 95.1091 56.5864 94.742 56.7697C94.3807 56.9471 94.135 57.225 94.0047 57.6034C93.8745 57.9758 93.8093 58.4488 93.8093 59.0223L93.8093 61.6118C93.8093 62.0612 93.7264 62.4898 93.5606 62.8977C93.3948 63.2998 93.0869 63.6575 92.6369 63.9708C92.1869 64.2782 91.5444 64.5236 90.7095 64.7069C89.8745 64.8843 88.7909 64.9729 87.4586 64.9729ZM96.3407 76.1204C95.4466 76.1204 94.6235 76.0643 93.8715 75.9519C93.1195 75.8396 92.4681 75.6149 91.9174 75.2779C91.3727 74.9409 90.9463 74.4443 90.6384 73.7881C90.3364 73.1259 90.1854 72.2479 90.1854 71.1542L90.1854 69.1854C90.1854 68.2749 89.987 67.6157 89.5903 67.2078C89.1936 66.7998 88.483 66.5958 87.4586 66.5958L87.4586 64.8133C88.7909 64.8133 89.8745 64.9049 90.7095 65.0882C91.5444 65.2656 92.1869 65.5109 92.6369 65.8243C93.0869 66.1317 93.3948 66.4894 93.5606 66.8974C93.7264 67.2994 93.8093 67.728 93.8093 68.1833L93.8093 70.7728C93.8093 71.3404 93.8745 71.8134 94.0047 72.1918C94.135 72.5642 94.3807 72.8421 94.742 73.0254C95.1091 73.2027 95.642 73.2914 96.3407 73.2914L96.3407 76.1204ZM87.4586 66.5958L87.4586 63.1904L90.6473 63.1904L90.6473 66.5958L87.4586 66.5958ZM117.722 63.3944L117.722 66.3919L109.426 66.3919L109.426 63.3944L117.722 63.3944ZM122.899 73.9743L122.899 71.2074L129.374 65.2212C129.925 64.6891 130.387 64.2103 130.76 63.7846C131.139 63.3589 131.426 62.9421 131.621 62.5341C131.817 62.1203 131.914 61.6739 131.914 61.195C131.914 60.6629 131.793 60.2047 131.55 59.8204C131.307 59.4302 130.976 59.1317 130.555 58.9247C130.135 58.7119 129.658 58.6055 129.125 58.6055C128.569 58.6055 128.083 58.7178 127.669 58.9425C127.254 59.1671 126.934 59.4893 126.709 59.9091C126.484 60.3289 126.372 60.8285 126.372 61.4079L122.721 61.4079C122.721 60.2195 122.991 59.1878 123.53 58.3128C124.068 57.4378 124.823 56.7609 125.794 56.282C126.766 55.8031 127.885 55.5636 129.152 55.5636C130.455 55.5636 131.589 55.7942 132.554 56.2554C133.525 56.7106 134.28 57.3432 134.819 58.1532C135.358 58.9632 135.627 59.8914 135.627 60.9378C135.627 61.6237 135.491 62.3006 135.218 62.9687C134.952 63.6368 134.475 64.3788 133.788 65.1946C133.102 66.0046 132.133 66.9772 130.884 68.1123L128.228 70.7107L128.228 70.8349L135.867 70.8349L135.867 73.9743L122.899 73.9743ZM149.113 54.9606L143.251 76.7057L139.991 76.7057L145.854 54.9606L149.113 54.9606ZM154.121 73.9743L161.662 59.0755L161.662 58.9513L152.878 58.9513L152.878 55.8119L165.642 55.8119L165.642 58.9957L158.092 73.9743L154.121 73.9743ZM171.8 71.4912L171.702 72.4667C171.625 73.2471 171.477 74.0245 171.258 74.799C171.045 75.5795 170.82 76.286 170.583 76.9186C170.352 77.5512 170.166 78.0478 170.024 78.4085L167.572 78.4085C167.661 78.0596 167.782 77.5719 167.936 76.9452C168.09 76.3244 168.235 75.6268 168.372 74.8523C168.508 74.0778 168.594 73.2885 168.629 72.4844L168.674 71.4912L171.8 71.4912ZM197.599 71.4912L197.501 72.4667C197.424 73.2471 197.276 74.0245 197.057 74.799C196.844 75.5795 196.619 76.286 196.382 76.9186C196.151 77.5512 195.964 78.0478 195.822 78.4085L193.371 78.4085C193.46 78.0596 193.581 77.5719 193.735 76.9452C193.889 76.3244 194.034 75.6268 194.17 74.8523C194.306 74.0778 194.392 73.2885 194.428 72.4844L194.472 71.4912L197.599 71.4912ZM210.684 70.7817L210.684 67.7576L218.278 55.8119L220.89 55.8119L220.89 59.9978L219.344 59.9978L214.557 67.5625L214.557 67.7044L225.348 67.7044L225.348 70.7817L210.684 70.7817ZM219.415 73.9743L219.415 69.8594L219.486 68.5203L219.486 55.8119L223.092 55.8119L223.092 73.9743L219.415 73.9743ZM232.317 74.2049C231.731 74.2049 231.228 73.9979 230.807 73.5841C230.393 73.1643 230.186 72.6618 230.186 72.0765C230.186 71.4971 230.393 71.0004 230.807 70.5866C231.228 70.1727 231.731 69.9658 232.317 69.9658C232.886 69.9658 233.383 70.1727 233.81 70.5866C234.236 71.0004 234.449 71.4971 234.449 72.0765C234.449 72.4667 234.348 72.8244 234.147 73.1495C233.952 73.4688 233.694 73.726 233.374 73.9211C233.055 74.1103 232.702 74.2049 232.317 74.2049ZM242.269 74.2049C241.682 74.2049 241.179 73.9979 240.759 73.5841C240.344 73.1643 240.137 72.6618 240.137 72.0765C240.137 71.4971 240.344 71.0004 240.759 70.5866C241.179 70.1727 241.682 69.9658 242.269 69.9658C242.837 69.9658 243.334 70.1727 243.761 70.5866C244.187 71.0004 244.4 71.4971 244.4 72.0765C244.4 72.4667 244.3 72.8244 244.098 73.1495C243.903 73.4688 243.645 73.726 243.326 73.9211C243.006 74.1103 242.653 74.2049 242.269 74.2049ZM252.22 74.2049C251.633 74.2049 251.13 73.9979 250.71 73.5841C250.295 73.1643 250.088 72.6618 250.088 72.0765C250.088 71.4971 250.295 71.0004 250.71 70.5866C251.13 70.1727 251.633 69.9658 252.22 69.9658C252.788 69.9658 253.286 70.1727 253.712 70.5866C254.138 71.0004 254.351 71.4971 254.351 72.0765C254.351 72.4667 254.251 72.8244 254.049 73.1495C253.854 73.4688 253.596 73.726 253.277 73.9211C252.957 74.1103 252.605 74.2049 252.22 74.2049ZM267.909 66.6136L267.909 68.3961C266.89 68.3961 266.18 68.6001 265.777 69.008C265.38 69.416 265.182 70.0752 265.182 70.9857L265.182 72.9544C265.182 74.0482 265.028 74.9232 264.72 75.5795C264.418 76.2416 263.992 76.7412 263.441 77.0782C262.896 77.4152 262.248 77.6399 261.496 77.7522C260.75 77.8645 259.927 77.9207 259.027 77.9207L259.027 75.0917C259.725 75.0917 260.255 75.0001 260.616 74.8168C260.984 74.6394 261.232 74.3615 261.363 73.9832C261.493 73.6107 261.558 73.1407 261.558 72.5731L261.558 69.9835C261.558 69.5283 261.641 69.0997 261.807 68.6976C261.972 68.2897 262.28 67.932 262.73 67.6246C263.18 67.3112 263.823 67.0659 264.658 66.8885C265.493 66.7052 266.576 66.6136 267.909 66.6136ZM259.027 55.475C259.927 55.475 260.75 55.5311 261.496 55.6434C262.248 55.7558 262.896 55.9804 263.441 56.3174C263.992 56.6544 264.418 57.154 264.72 57.8162C265.028 58.4724 265.182 59.3475 265.182 60.4412L265.182 62.4011C265.182 63.3116 265.38 63.9708 265.777 64.3788C266.18 64.7867 266.89 64.9907 267.909 64.9907L267.909 66.7732C266.576 66.7732 265.493 66.6845 264.658 66.5072C263.823 66.3239 263.18 66.0785 262.73 65.7711C262.28 65.4577 261.972 65.1 261.807 64.698C261.641 64.2901 261.558 63.8614 261.558 63.4121L261.558 60.8226C261.558 60.2491 261.493 59.7761 261.363 59.4036C261.232 59.0252 260.984 58.7474 260.616 58.57C260.255 58.3867 259.725 58.2951 259.027 58.2951L259.027 55.475ZM267.909 64.9907L267.909 68.3961L264.72 68.3961L264.72 64.9907L267.909 64.9907Z" fill="black"/>
<defs>
<filter id="filter0_d_407_4" x="2.479" y="2.97466" width="310.644" height="133.541" filterUnits="userSpaceOnUse" color-interpolation-filters="sRGB">
<feFlood flood-opacity="0" result="BackgroundImageFix"/>
<feColorMatrix in="SourceAlpha" type="matrix" values="0 0 0 0 0 0 0 0 0 0 0 0 0 0 0 0 0 0 127 0" result="hardAlpha"/>
<feMorphology radius="3" operator="dilate" in="SourceAlpha" result="effect1_dropShadow_407_4"/>
<feOffset dx="4" dy="4"/>
<feGaussianBlur stdDeviation="2"/>
<feComposite in2="hardAlpha" operator="out"/>
<feColorMatrix type="matrix" values="0 0 0 0 0 0 0 0 0 0 0 0 0 0 0 0 0 0 0.13 0"/>
<feBlend mode="normal" in2="BackgroundImageFix" result="effect1_dropShadow_407_4"/>
<feBlend mode="normal" in="SourceGraphic" in2="effect1_dropShadow_407_4" result="shape"/>
</filter>
</defs>
</svg>
