<svg width="314" height="137" viewBox="0 0 314 137" fill="none" xmlns="http://www.w3.org/2000/svg">
<g filter="url(#filter0_d_407_4)">
<rect width="296.293" height="119.422" rx="10" transform="matrix(1.00051 -0.000915803 0.00201405 0.998878 5.45889 6.23685)" fill="white"/>
<rect x="1.50378" y="1.49694" width="293.293" height="116.422" rx="8.5" transform="matrix(1.00051 -0.000915803 0.00201405 0.998878 5.45511 6.2399)" stroke="#CCCCCC" stroke-width="3"/>
</g>
<path d="M54.7962 55.8119L54.7962 73.9743L51.4742 73.9743L43.5602 62.543L43.427 62.543L43.427 73.9743L39.581 73.9743L39.581 55.8119L42.9563 55.8119L50.8081 67.2344L50.968 67.2344L50.968 55.8119L54.7962 55.8119ZM69.5468 63.5274L69.5468 60.3703L81.8131 60.3703L81.8131 63.5274L69.5468 63.5274ZM69.5468 69.416L69.5468 66.2588L81.8131 66.2588L81.8131 69.416L69.5468 69.416ZM87.4586 64.9729L87.4586 63.1904C88.483 63.1904 89.1936 62.9864 89.5903 62.5785C89.987 62.1705 90.1854 61.5113 90.1854 60.6008L90.1854 58.6409C90.1854 57.5472 90.3364 56.6722 90.6384 56.0159C90.9463 55.3538 91.3727 54.8542 91.9174 54.5172C92.4681 54.1802 93.1195 53.9555 93.8715 53.8432C94.6235 53.7308 95.4466 53.6747 96.3407 53.6747L96.3407 56.4948C95.642 56.4948 95.1091 56.5864 94.742 56.7697C94.3807 56.9471 94.135 57.225 94.0047 57.6034C93.8745 57.9758 93.8093 58.4488 93.8093 59.0223L93.8093 61.6118C93.8093 62.0612 93.7264 62.4898 93.5606 62.8977C93.3948 63.2998 93.0869 63.6575 92.6369 63.9708C92.1869 64.2782 91.5444 64.5236 90.7095 64.7069C89.8745 64.8843 88.7909 64.9729 87.4586 64.9729ZM96.3407 76.1204C95.4466 76.1204 94.6235 76.0643 93.8715 75.9519C93.1195 75.8396 92.4681 75.6149 91.9174 75.2779C91.3727 74.9409 90.9463 74.4443 90.6384 73.7881C90.3364 73.1259 90.1854 72.2479 90.1854 71.1542L90.1854 69.1854C90.1854 68.2749 89.987 67.6157 89.5903 67.2078C89.1936 66.7998 88.483 66.5958 87.4586 66.5958L87.4586 64.8133C88.7909 64.8133 89.8745 64.9049 90.7095 65.0882C91.5444 65.2656 92.1869 65.5109 92.6369 65.8243C93.0869 66.1317 93.3948 66.4894 93.5606 66.8974C93.7264 67.2994 93.8093 67.728 93.8093 68.1833L93.8093 70.7728C93.8093 71.3404 93.8745 71.8134 94.0047 72.1918C94.135 72.5642 94.3807 72.8421 94.742 73.0254C95.1091 73.2027 95.642 73.2914 96.3407 73.2914L96.3407 76.1204ZM87.4586 66.5958L87.4586 63.1904L90.6473 63.1904L90.6473 66.5958L87.4586 66.5958ZM108.81 55.8119L108.81 73.9743L104.964 73.9743L104.964 59.4568L104.857 59.4568L100.692 62.0641L100.692 58.6587L105.195 55.8119L108.81 55.8119ZM118.806 71.4912L118.708 72.4667C118.631 73.2471 118.483 74.0245 118.264 74.799C118.051 75.5795 117.826 76.286 117.589 76.9186C117.358 77.5512 117.171 78.0478 117.029 78.4085L114.578 78.4085C114.666 78.0596 114.788 77.5719 114.942 76.9452C115.096 76.3244 115.241 75.6268 115.377 74.8523C115.513 74.0778 115.599 73.2885 115.635 72.4844L115.679 71.4912L118.806 71.4912ZM140.702 63.3944L140.702 66.3919L132.406 66.3919L132.406 63.3944L140.702 63.3944ZM145.879 73.9743L145.879 71.2074L152.354 65.2212C152.905 64.6891 153.366 64.2103 153.74 63.7846C154.119 63.3589 154.406 62.9421 154.601 62.5341C154.797 62.1203 154.894 61.6739 154.894 61.195C154.894 60.6629 154.773 60.2047 154.53 59.8204C154.287 59.4302 153.956 59.1317 153.535 58.9247C153.115 58.7119 152.638 58.6055 152.105 58.6055C151.549 58.6055 151.063 58.7178 150.649 58.9425C150.234 59.1671 149.914 59.4893 149.689 59.9091C149.464 60.3289 149.352 60.8285 149.352 61.4079L145.701 61.4079C145.701 60.2195 145.971 59.1878 146.509 58.3128C147.048 57.4378 147.803 56.7609 148.774 56.282C149.746 55.8031 150.865 55.5636 152.132 55.5636C153.435 55.5636 154.569 55.7942 155.534 56.2554C156.505 56.7106 157.26 57.3432 157.799 58.1532C158.338 58.9632 158.607 59.8914 158.607 60.9378C158.607 61.6237 158.471 62.3006 158.198 62.9687C157.932 63.6368 157.455 64.3788 156.768 65.1946C156.081 66.0046 155.113 66.9772 153.864 68.1123L151.208 70.7107L151.208 70.8349L158.847 70.8349L158.847 73.9743L145.879 73.9743ZM168.283 71.4912L168.185 72.4667C168.108 73.2471 167.96 74.0245 167.741 74.799C167.528 75.5795 167.303 76.286 167.066 76.9186C166.835 77.5512 166.648 78.0478 166.506 78.4085L164.055 78.4085C164.144 78.0596 164.265 77.5719 164.419 76.9452C164.573 76.3244 164.718 75.6268 164.854 74.8523C164.99 74.0778 165.076 73.2885 165.112 72.4844L165.156 71.4912L168.283 71.4912ZM188.367 74.2226C187.041 74.2226 185.859 73.995 184.823 73.5397C183.793 73.0786 182.979 72.446 182.381 71.6419C181.788 70.8319 181.483 69.8978 181.466 68.8395L185.338 68.8395C185.362 69.2829 185.507 69.6731 185.774 70.0101C186.046 70.3412 186.407 70.5984 186.857 70.7817C187.307 70.965 187.813 71.0566 188.376 71.0566C188.962 71.0566 189.48 70.9531 189.93 70.7462C190.38 70.5393 190.733 70.2525 190.987 69.886C191.242 69.5194 191.369 69.0967 191.369 68.6178C191.369 68.133 191.233 67.7044 190.961 67.3319C190.694 66.9535 190.309 66.6579 189.806 66.4451C189.309 66.2322 188.716 66.1258 188.03 66.1258L186.333 66.1258L186.333 63.3057L188.03 63.3057C188.61 63.3057 189.122 63.2052 189.566 63.0042C190.016 62.8031 190.366 62.5253 190.614 62.1705C190.863 61.8099 190.987 61.3901 190.987 60.9112C190.987 60.456 190.878 60.0569 190.659 59.714C190.446 59.3652 190.144 59.0932 189.753 58.8981C189.368 58.703 188.918 58.6055 188.403 58.6055C187.882 58.6055 187.405 58.7001 186.973 58.8893C186.54 59.0725 186.194 59.3356 185.933 59.6785C185.673 60.0214 185.534 60.4235 185.516 60.8846L181.83 60.8846C181.848 59.8382 182.147 58.9159 182.727 58.1177C183.307 57.3196 184.089 56.6958 185.072 56.2465C186.061 55.7913 187.177 55.5636 188.42 55.5636C189.676 55.5636 190.774 55.7913 191.716 56.2465C192.657 56.7017 193.389 57.3166 193.91 58.0911C194.437 58.8597 194.697 59.7229 194.691 60.6807C194.697 61.6976 194.38 62.546 193.741 63.2259C193.107 63.9058 192.281 64.3374 191.263 64.5206L191.263 64.6625C192.601 64.834 193.619 65.2981 194.318 66.0549C195.023 66.8057 195.372 67.7458 195.366 68.875C195.372 69.9096 195.073 70.829 194.469 71.633C193.871 72.4371 193.045 73.0697 191.991 73.5309C190.937 73.992 189.729 74.2226 188.367 74.2226ZM213.07 71.4912L212.972 72.4667C212.896 73.2471 212.747 74.0245 212.528 74.799C212.315 75.5795 212.09 76.286 211.853 76.9186C211.622 77.5512 211.436 78.0478 211.294 78.4085L208.842 78.4085C208.931 78.0596 209.053 77.5719 209.206 76.9452C209.36 76.3244 209.505 75.6268 209.642 74.8523C209.778 74.0778 209.864 73.2885 209.899 72.4844L209.944 71.4912L213.07 71.4912ZM226.155 70.7817L226.155 67.7576L233.75 55.8119L236.361 55.8119L236.361 59.9978L234.816 59.9978L230.028 67.5625L230.028 67.7044L240.82 67.7044L240.82 70.7817L226.155 70.7817ZM234.887 73.9743L234.887 69.8594L234.958 68.5203L234.958 55.8119L238.564 55.8119L238.564 73.9743L234.887 73.9743ZM247.789 74.2049C247.203 74.2049 246.699 73.9979 246.279 73.5841C245.864 73.1643 245.657 72.6618 245.657 72.0765C245.657 71.4971 245.864 71.0004 246.279 70.5866C246.699 70.1727 247.203 69.9658 247.789 69.9658C248.357 69.9658 248.855 70.1727 249.281 70.5866C249.707 71.0004 249.921 71.4971 249.921 72.0765C249.921 72.4667 249.82 72.8244 249.619 73.1495C249.423 73.4688 249.166 73.726 248.846 73.9211C248.526 74.1103 248.174 74.2049 247.789 74.2049ZM257.74 74.2049C257.154 74.2049 256.65 73.9979 256.23 73.5841C255.815 73.1643 255.608 72.6618 255.608 72.0765C255.608 71.4971 255.815 71.0004 256.23 70.5866C256.65 70.1727 257.154 69.9658 257.74 69.9658C258.308 69.9658 258.806 70.1727 259.232 70.5866C259.659 71.0004 259.872 71.4971 259.872 72.0765C259.872 72.4667 259.771 72.8244 259.57 73.1495C259.374 73.4688 259.117 73.726 258.797 73.9211C258.477 74.1103 258.125 74.2049 257.74 74.2049ZM267.691 74.2049C267.105 74.2049 266.602 73.9979 266.181 73.5841C265.767 73.1643 265.559 72.6618 265.559 72.0765C265.559 71.4971 265.767 71.0004 266.181 70.5866C266.602 70.1727 267.105 69.9658 267.691 69.9658C268.26 69.9658 268.757 70.1727 269.183 70.5866C269.61 71.0004 269.823 71.4971 269.823 72.0765C269.823 72.4667 269.722 72.8244 269.521 73.1495C269.325 73.4688 269.068 73.726 268.748 73.9211C268.428 74.1103 268.076 74.2049 267.691 74.2049ZM283.38 66.6136L283.38 68.3961C282.362 68.3961 281.651 68.6001 281.248 69.008C280.852 69.416 280.653 70.0752 280.653 70.9857L280.653 72.9544C280.653 74.0482 280.499 74.9232 280.191 75.5795C279.889 76.2416 279.463 76.7412 278.912 77.0782C278.368 77.4152 277.719 77.6399 276.967 77.7522C276.221 77.8645 275.398 77.9207 274.498 77.9207L274.498 75.0917C275.197 75.0917 275.727 75.0001 276.088 74.8168C276.455 74.6394 276.704 74.3615 276.834 73.9832C276.964 73.6107 277.029 73.1407 277.029 72.5731L277.029 69.9835C277.029 69.5283 277.112 69.0997 277.278 68.6976C277.444 68.2897 277.752 67.932 278.202 67.6246C278.652 67.3112 279.294 67.0659 280.129 66.8885C280.964 66.7052 282.048 66.6136 283.38 66.6136ZM274.498 55.475C275.398 55.475 276.221 55.5311 276.967 55.6434C277.719 55.7558 278.368 55.9804 278.912 56.3174C279.463 56.6544 279.889 57.154 280.191 57.8162C280.499 58.4724 280.653 59.3475 280.653 60.4412L280.653 62.4011C280.653 63.3116 280.852 63.9708 281.248 64.3788C281.651 64.7867 282.362 64.9907 283.38 64.9907L283.38 66.7732C282.048 66.7732 280.964 66.6845 280.129 66.5072C279.294 66.3239 278.652 66.0785 278.202 65.7711C277.752 65.4577 277.444 65.1 277.278 64.698C277.112 64.2901 277.029 63.8614 277.029 63.4121L277.029 60.8226C277.029 60.2491 276.964 59.7761 276.834 59.4036C276.704 59.0252 276.455 58.7474 276.088 58.57C275.727 58.3867 275.197 58.2951 274.498 58.2951L274.498 55.475ZM283.38 64.9907L283.38 68.3961L280.191 68.3961L280.191 64.9907L283.38 64.9907Z" fill="black"/>
<defs>
<filter id="filter0_d_407_4" x="2.479" y="2.97466" width="310.644" height="133.541" filterUnits="userSpaceOnUse" color-interpolation-filters="sRGB">
<feFlood flood-opacity="0" result="BackgroundImageFix"/>
<feColorMatrix in="SourceAlpha" type="matrix" values="0 0 0 0 0 0 0 0 0 0 0 0 0 0 0 0 0 0 127 0" result="hardAlpha"/>
<feMorphology radius="3" operator="dilate" in="SourceAlpha" result="effect1_dropShadow_407_4"/>
<feOffset dx="4" dy="4"/>
<feGaussianBlur stdDeviation="2"/>
<feComposite in2="hardAlpha" operator="out"/>
<feColorMatrix type="matrix" values="0 0 0 0 0 0 0 0 0 0 0 0 0 0 0 0 0 0 0.13 0"/>
<feBlend mode="normal" in2="BackgroundImageFix" result="effect1_dropShadow_407_4"/>
<feBlend mode="normal" in="SourceGraphic" in2="effect1_dropShadow_407_4" result="shape"/>
</filter>
</defs>
</svg>
