<svg width="316" height="200" viewBox="0 0 316 200" fill="none" xmlns="http://www.w3.org/2000/svg">
<g filter="url(#filter0_d_391_37)">
<rect x="8.29041" y="3" width="296.444" height="177.046" rx="10" transform="rotate(1.71235 8.29041 3)" fill="white"/>
<rect x="9.74491" y="4.54415" width="293.444" height="174.046" rx="8.5" transform="rotate(1.71235 9.74491 4.54415)" stroke="#CCCCCC" stroke-width="3"/>
</g>
<path d="M140.547 45.2301C139.983 44.6194 139.034 44.5782 138.428 45.1383L128.555 54.2651C127.95 54.8252 127.916 55.7743 128.481 56.3851C129.046 56.9959 129.994 57.037 130.6 56.4769L139.376 48.3642L147.555 57.2116C148.12 57.8224 149.068 57.8635 149.674 57.3034C150.28 56.7434 150.313 55.7942 149.749 55.1834L140.547 45.2301ZM138.082 127.822L139.515 87.0656L136.518 86.9358L135.085 127.692L138.082 127.822ZM139.515 87.0656L140.949 46.3092L137.952 46.1793L136.518 86.9358L139.515 87.0656Z" fill="black"/>
<path d="M134.651 170.37C135.219 170.981 136.167 171.022 136.77 170.462L146.589 161.33C147.191 160.77 147.219 159.821 146.652 159.21C146.084 158.599 145.135 158.558 144.532 159.119L135.804 167.235L127.577 158.389C127.009 157.778 126.06 157.737 125.458 158.298C124.855 158.858 124.827 159.807 125.395 160.418L134.651 170.37ZM137.009 75.6515L134.243 169.291L137.24 169.42L140.006 75.7805L137.009 75.6515Z" fill="black"/>
<path d="M171.196 52.3914C170.717 52.3586 170.271 52.2896 169.858 52.1846C169.45 52.0859 169.115 51.9715 168.852 51.8414L169.934 49.1038C170.366 49.2691 170.759 49.3698 171.112 49.4058C171.472 49.4423 171.789 49.3815 172.064 49.2235C172.344 49.066 172.585 48.7818 172.785 48.3711L173.054 47.8148L169.315 33.5873L173.287 33.86L175.288 43.9715L175.429 43.9812L179.094 34.2587L183.092 34.5332L176.565 49.1346C176.25 49.844 175.852 50.4534 175.371 50.9626C174.894 51.4781 174.313 51.8597 173.627 52.1073C172.94 52.3608 172.13 52.4555 171.196 52.3914Z" fill="black"/>
<defs>
<filter id="filter0_d_391_37" x="0.29425" y="0.29425" width="315.014" height="199.236" filterUnits="userSpaceOnUse" color-interpolation-filters="sRGB">
<feFlood flood-opacity="0" result="BackgroundImageFix"/>
<feColorMatrix in="SourceAlpha" type="matrix" values="0 0 0 0 0 0 0 0 0 0 0 0 0 0 0 0 0 0 127 0" result="hardAlpha"/>
<feMorphology radius="3" operator="dilate" in="SourceAlpha" result="effect1_dropShadow_391_37"/>
<feOffset dx="4" dy="4"/>
<feGaussianBlur stdDeviation="2"/>
<feComposite in2="hardAlpha" operator="out"/>
<feColorMatrix type="matrix" values="0 0 0 0 0 0 0 0 0 0 0 0 0 0 0 0 0 0 0.13 0"/>
<feBlend mode="normal" in2="BackgroundImageFix" result="effect1_dropShadow_391_37"/>
<feBlend mode="normal" in="SourceGraphic" in2="effect1_dropShadow_391_37" result="shape"/>
</filter>
</defs>
</svg>
