<svg width="314" height="137" viewBox="0 0 314 137" fill="none" xmlns="http://www.w3.org/2000/svg">
<g filter="url(#filter0_d_407_4)">
<rect width="296.293" height="119.422" rx="10" transform="matrix(1.00051 -0.000915803 0.00201405 0.998878 5.45889 6.23685)" fill="white"/>
<rect x="1.50378" y="1.49694" width="293.293" height="116.422" rx="8.5" transform="matrix(1.00051 -0.000915803 0.00201405 0.998878 5.45511 6.2399)" stroke="#CCCCCC" stroke-width="3"/>
</g>
<path d="M54.7962 55.8119L54.7962 73.9743L51.4742 73.9743L43.5602 62.543L43.427 62.543L43.427 73.9743L39.581 73.9743L39.581 55.8119L42.9563 55.8119L50.8081 67.2344L50.968 67.2344L50.968 55.8119L54.7962 55.8119ZM69.5468 63.5274L69.5468 60.3703L81.8131 60.3703L81.8131 63.5274L69.5468 63.5274ZM69.5468 69.416L69.5468 66.2588L81.8131 66.2588L81.8131 69.416L69.5468 69.416ZM87.4586 64.9729L87.4586 63.1904C88.483 63.1904 89.1936 62.9864 89.5903 62.5785C89.987 62.1705 90.1854 61.5113 90.1854 60.6008L90.1854 58.6409C90.1854 57.5472 90.3364 56.6722 90.6384 56.0159C90.9463 55.3538 91.3727 54.8542 91.9174 54.5172C92.4681 54.1802 93.1195 53.9555 93.8715 53.8432C94.6235 53.7308 95.4466 53.6747 96.3407 53.6747L96.3407 56.4948C95.642 56.4948 95.1091 56.5864 94.742 56.7697C94.3807 56.9471 94.135 57.225 94.0047 57.6034C93.8745 57.9758 93.8093 58.4488 93.8093 59.0223L93.8093 61.6118C93.8093 62.0612 93.7264 62.4898 93.5606 62.8977C93.3948 63.2998 93.0869 63.6575 92.6369 63.9708C92.1869 64.2782 91.5444 64.5236 90.7095 64.7069C89.8745 64.8843 88.7909 64.9729 87.4586 64.9729ZM96.3407 76.1204C95.4466 76.1204 94.6235 76.0643 93.8715 75.9519C93.1195 75.8396 92.4681 75.6149 91.9174 75.2779C91.3727 74.9409 90.9463 74.4443 90.6384 73.7881C90.3364 73.1259 90.1854 72.2479 90.1854 71.1542L90.1854 69.1854C90.1854 68.2749 89.987 67.6157 89.5903 67.2078C89.1936 66.7998 88.483 66.5958 87.4586 66.5958L87.4586 64.8133C88.7909 64.8133 89.8745 64.9049 90.7095 65.0882C91.5444 65.2656 92.1869 65.5109 92.6369 65.8243C93.0869 66.1317 93.3948 66.4894 93.5606 66.8974C93.7264 67.2994 93.8093 67.728 93.8093 68.1833L93.8093 70.7728C93.8093 71.3404 93.8745 71.8134 94.0047 72.1918C94.135 72.5642 94.3807 72.8421 94.742 73.0254C95.1091 73.2027 95.642 73.2914 96.3407 73.2914L96.3407 76.1204ZM87.4586 66.5958L87.4586 63.1904L90.6473 63.1904L90.6473 66.5958L87.4586 66.5958ZM108.81 55.8119L108.81 73.9743L104.964 73.9743L104.964 59.4568L104.857 59.4568L100.692 62.0641L100.692 58.6587L105.195 55.8119L108.81 55.8119ZM118.806 71.4912L118.708 72.4667C118.631 73.2471 118.483 74.0245 118.264 74.799C118.051 75.5795 117.826 76.286 117.589 76.9186C117.358 77.5512 117.171 78.0478 117.029 78.4085L114.578 78.4085C114.666 78.0596 114.788 77.5719 114.942 76.9452C115.096 76.3244 115.241 75.6268 115.377 74.8523C115.513 74.0778 115.599 73.2885 115.635 72.4844L115.679 71.4912L118.806 71.4912ZM132.166 73.9743L132.166 71.2074L138.641 65.2212C139.192 64.6891 139.654 64.2103 140.027 63.7846C140.406 63.3589 140.693 62.9421 140.888 62.5341C141.084 62.1203 141.181 61.6739 141.181 61.195C141.181 60.6629 141.06 60.2047 140.817 59.8204C140.575 59.4302 140.243 59.1317 139.823 58.9247C139.402 58.7119 138.925 58.6055 138.392 58.6055C137.836 58.6055 137.35 58.7178 136.936 58.9425C136.521 59.1671 136.202 59.4893 135.977 59.9091C135.752 60.3289 135.639 60.8285 135.639 61.4079L131.988 61.4079C131.988 60.2195 132.258 59.1878 132.797 58.3128C133.336 57.4378 134.091 56.7609 135.062 56.282C136.033 55.8031 137.152 55.5636 138.419 55.5636C139.722 55.5636 140.856 55.7942 141.821 56.2554C142.792 56.7106 143.547 57.3432 144.086 58.1532C144.625 58.9632 144.894 59.8914 144.894 60.9378C144.894 61.6237 144.758 62.3006 144.486 62.9687C144.219 63.6368 143.743 64.3788 143.056 65.1946C142.369 66.0046 141.401 66.9772 140.151 68.1123L137.495 70.7107L137.495 70.8349L145.134 70.8349L145.134 73.9743L132.166 73.9743ZM154.57 71.4912L154.472 72.4667C154.395 73.2471 154.247 74.0245 154.028 74.799C153.815 75.5795 153.59 76.286 153.353 76.9186C153.122 77.5512 152.936 78.0478 152.794 78.4085L150.342 78.4085C150.431 78.0596 150.552 77.5719 150.706 76.9452C150.86 76.3244 151.005 75.6268 151.142 74.8523C151.278 74.0778 151.364 73.2885 151.399 72.4844L151.443 71.4912L154.57 71.4912ZM174.654 74.2226C173.328 74.2226 172.147 73.995 171.11 73.5397C170.08 73.0786 169.266 72.446 168.668 71.6419C168.076 70.8319 167.771 69.8978 167.753 68.8395L171.626 68.8395C171.649 69.2829 171.794 69.6731 172.061 70.0101C172.333 70.3412 172.694 70.5984 173.144 70.7817C173.594 70.965 174.101 71.0566 174.663 71.0566C175.249 71.0566 175.768 70.9531 176.218 70.7462C176.668 70.5393 177.02 70.2525 177.275 69.886C177.529 69.5194 177.657 69.0967 177.657 68.6178C177.657 68.133 177.52 67.7044 177.248 67.3319C176.982 66.9535 176.597 66.6579 176.093 66.4451C175.596 66.2322 175.004 66.1258 174.317 66.1258L172.62 66.1258L172.62 63.3057L174.317 63.3057C174.897 63.3057 175.409 63.2052 175.853 63.0042C176.304 62.8031 176.653 62.5253 176.902 62.1705C177.15 61.8099 177.275 61.3901 177.275 60.9112C177.275 60.456 177.165 60.0569 176.946 59.714C176.733 59.3652 176.431 59.0932 176.04 58.8981C175.655 58.703 175.205 58.6055 174.69 58.6055C174.169 58.6055 173.692 58.7001 173.26 58.8893C172.828 59.0725 172.481 59.3356 172.221 59.6785C171.96 60.0214 171.821 60.4235 171.803 60.8846L168.117 60.8846C168.135 59.8382 168.434 58.9159 169.014 58.1177C169.595 57.3196 170.376 56.6958 171.359 56.2465C172.348 55.7913 173.464 55.5636 174.708 55.5636C175.963 55.5636 177.061 55.7913 178.003 56.2465C178.944 56.7017 179.676 57.3166 180.197 58.0911C180.724 58.8597 180.984 59.7229 180.978 60.6807C180.984 61.6976 180.668 62.546 180.028 63.2259C179.394 63.9058 178.568 64.3374 177.55 64.5206L177.55 64.6625C178.888 64.834 179.907 65.2981 180.605 66.0549C181.31 66.8057 181.659 67.7458 181.654 68.875C181.659 69.9096 181.36 70.829 180.756 71.633C180.158 72.4371 179.332 73.0697 178.278 73.5309C177.224 73.992 176.016 74.2226 174.654 74.2226ZM199.357 71.4912L199.26 72.4667C199.183 73.2471 199.035 74.0245 198.816 74.799C198.602 75.5795 198.377 76.286 198.141 76.9186C197.91 77.5512 197.723 78.0478 197.581 78.4085L195.13 78.4085C195.218 78.0596 195.34 77.5719 195.494 76.9452C195.648 76.3244 195.793 75.6268 195.929 74.8523C196.065 74.0778 196.151 73.2885 196.187 72.4844L196.231 71.4912L199.357 71.4912ZM212.443 70.7817L212.443 67.7576L220.037 55.8119L222.648 55.8119L222.648 59.9978L221.103 59.9978L216.315 67.5625L216.315 67.7044L227.107 67.7044L227.107 70.7817L212.443 70.7817ZM221.174 73.9743L221.174 69.8594L221.245 68.5203L221.245 55.8119L224.851 55.8119L224.851 73.9743L221.174 73.9743ZM234.076 74.2049C233.49 74.2049 232.987 73.9979 232.566 73.5841C232.152 73.1643 231.944 72.6618 231.944 72.0765C231.944 71.4971 232.152 71.0004 232.566 70.5866C232.987 70.1727 233.49 69.9658 234.076 69.9658C234.645 69.9658 235.142 70.1727 235.568 70.5866C235.995 71.0004 236.208 71.4971 236.208 72.0765C236.208 72.4667 236.107 72.8244 235.906 73.1495C235.71 73.4688 235.453 73.726 235.133 73.9211C234.813 74.1103 234.461 74.2049 234.076 74.2049ZM244.027 74.2049C243.441 74.2049 242.938 73.9979 242.517 73.5841C242.103 73.1643 241.896 72.6618 241.896 72.0765C241.896 71.4971 242.103 71.0004 242.517 70.5866C242.938 70.1727 243.441 69.9658 244.027 69.9658C244.596 69.9658 245.093 70.1727 245.519 70.5866C245.946 71.0004 246.159 71.4971 246.159 72.0765C246.159 72.4667 246.058 72.8244 245.857 73.1495C245.662 73.4688 245.404 73.726 245.084 73.9211C244.764 74.1103 244.412 74.2049 244.027 74.2049ZM253.978 74.2049C253.392 74.2049 252.889 73.9979 252.468 73.5841C252.054 73.1643 251.847 72.6618 251.847 72.0765C251.847 71.4971 252.054 71.0004 252.468 70.5866C252.889 70.1727 253.392 69.9658 253.978 69.9658C254.547 69.9658 255.044 70.1727 255.471 70.5866C255.897 71.0004 256.11 71.4971 256.11 72.0765C256.11 72.4667 256.009 72.8244 255.808 73.1495C255.613 73.4688 255.355 73.726 255.035 73.9211C254.716 74.1103 254.363 74.2049 253.978 74.2049ZM269.667 66.6136L269.667 68.3961C268.649 68.3961 267.938 68.6001 267.536 69.008C267.139 69.416 266.941 70.0752 266.941 70.9857L266.941 72.9544C266.941 74.0482 266.787 74.9232 266.479 75.5795C266.177 76.2416 265.75 76.7412 265.2 77.0782C264.655 77.4152 264.006 77.6399 263.254 77.7522C262.508 77.8645 261.685 77.9207 260.785 77.9207L260.785 75.0917C261.484 75.0917 262.014 75.0001 262.375 74.8168C262.742 74.6394 262.991 74.3615 263.121 73.9832C263.251 73.6107 263.317 73.1407 263.317 72.5731L263.317 69.9835C263.317 69.5283 263.4 69.0997 263.565 68.6976C263.731 68.2897 264.039 67.932 264.489 67.6246C264.939 67.3112 265.582 67.0659 266.417 66.8885C267.251 66.7052 268.335 66.6136 269.667 66.6136ZM260.785 55.475C261.685 55.475 262.508 55.5311 263.254 55.6434C264.006 55.7558 264.655 55.9804 265.2 56.3174C265.75 56.6544 266.177 57.154 266.479 57.8162C266.787 58.4724 266.941 59.3475 266.941 60.4412L266.941 62.4011C266.941 63.3116 267.139 63.9708 267.536 64.3788C267.938 64.7867 268.649 64.9907 269.667 64.9907L269.667 66.7732C268.335 66.7732 267.251 66.6845 266.417 66.5072C265.582 66.3239 264.939 66.0785 264.489 65.7711C264.039 65.4577 263.731 65.1 263.565 64.698C263.4 64.2901 263.317 63.8614 263.317 63.4121L263.317 60.8226C263.317 60.2491 263.251 59.7761 263.121 59.4036C262.991 59.0252 262.742 58.7474 262.375 58.57C262.014 58.3867 261.484 58.2951 260.785 58.2951L260.785 55.475ZM269.667 64.9907L269.667 68.3961L266.479 68.3961L266.479 64.9907L269.667 64.9907Z" fill="black"/>
<defs>
<filter id="filter0_d_407_4" x="2.479" y="2.97466" width="310.644" height="133.541" filterUnits="userSpaceOnUse" color-interpolation-filters="sRGB">
<feFlood flood-opacity="0" result="BackgroundImageFix"/>
<feColorMatrix in="SourceAlpha" type="matrix" values="0 0 0 0 0 0 0 0 0 0 0 0 0 0 0 0 0 0 127 0" result="hardAlpha"/>
<feMorphology radius="3" operator="dilate" in="SourceAlpha" result="effect1_dropShadow_407_4"/>
<feOffset dx="4" dy="4"/>
<feGaussianBlur stdDeviation="2"/>
<feComposite in2="hardAlpha" operator="out"/>
<feColorMatrix type="matrix" values="0 0 0 0 0 0 0 0 0 0 0 0 0 0 0 0 0 0 0.13 0"/>
<feBlend mode="normal" in2="BackgroundImageFix" result="effect1_dropShadow_407_4"/>
<feBlend mode="normal" in="SourceGraphic" in2="effect1_dropShadow_407_4" result="shape"/>
</filter>
</defs>
</svg>
