<svg width="314" height="137" viewBox="0 0 314 137" fill="none" xmlns="http://www.w3.org/2000/svg">
<g filter="url(#filter0_d_407_4)">
<rect width="296.293" height="119.422" rx="10" transform="matrix(1.00051 -0.000915803 0.00201405 0.998878 5.45889 6.23685)" fill="white"/>
<rect x="1.50378" y="1.49694" width="293.293" height="116.422" rx="8.5" transform="matrix(1.00051 -0.000915803 0.00201405 0.998878 5.45511 6.2399)" stroke="#CCCCCC" stroke-width="3"/>
</g>
<path d="M54.7962 55.8119L54.7962 73.9743L51.4742 73.9743L43.5602 62.543L43.427 62.543L43.427 73.9743L39.581 73.9743L39.581 55.8119L42.9563 55.8119L50.8081 67.2344L50.968 67.2344L50.968 55.8119L54.7962 55.8119ZM69.5468 63.5274L69.5468 60.3703L81.8131 60.3703L81.8131 63.5274L69.5468 63.5274ZM69.5468 69.416L69.5468 66.2588L81.8131 66.2588L81.8131 69.416L69.5468 69.416ZM87.4586 64.9729L87.4586 63.1904C88.483 63.1904 89.1936 62.9864 89.5903 62.5785C89.987 62.1705 90.1854 61.5113 90.1854 60.6008L90.1854 58.6409C90.1854 57.5472 90.3364 56.6722 90.6384 56.0159C90.9463 55.3538 91.3727 54.8542 91.9174 54.5172C92.4681 54.1802 93.1195 53.9555 93.8715 53.8432C94.6235 53.7308 95.4466 53.6747 96.3407 53.6747L96.3407 56.4948C95.642 56.4948 95.1091 56.5864 94.742 56.7697C94.3807 56.9471 94.135 57.225 94.0047 57.6034C93.8745 57.9758 93.8093 58.4488 93.8093 59.0223L93.8093 61.6118C93.8093 62.0612 93.7264 62.4898 93.5606 62.8977C93.3948 63.2998 93.0869 63.6575 92.6369 63.9708C92.1869 64.2782 91.5444 64.5236 90.7095 64.7069C89.8745 64.8843 88.7909 64.9729 87.4586 64.9729ZM96.3407 76.1204C95.4466 76.1204 94.6235 76.0643 93.8715 75.9519C93.1195 75.8396 92.4681 75.6149 91.9174 75.2779C91.3727 74.9409 90.9463 74.4443 90.6384 73.7881C90.3364 73.1259 90.1854 72.2479 90.1854 71.1542L90.1854 69.1854C90.1854 68.2749 89.987 67.6157 89.5903 67.2078C89.1936 66.7998 88.483 66.5958 87.4586 66.5958L87.4586 64.8133C88.7909 64.8133 89.8745 64.9049 90.7095 65.0882C91.5444 65.2656 92.1869 65.5109 92.6369 65.8243C93.0869 66.1317 93.3948 66.4894 93.5606 66.8974C93.7264 67.2994 93.8093 67.728 93.8093 68.1833L93.8093 70.7728C93.8093 71.3404 93.8745 71.8134 94.0047 72.1918C94.135 72.5642 94.3807 72.8421 94.742 73.0254C95.1091 73.2027 95.642 73.2914 96.3407 73.2914L96.3407 76.1204ZM87.4586 66.5958L87.4586 63.1904L90.6473 63.1904L90.6473 66.5958L87.4586 66.5958ZM109.432 63.3944L109.432 66.3919L101.136 66.3919L101.136 63.3944L109.432 63.3944ZM123.036 55.8119L123.036 73.9743L119.19 73.9743L119.19 59.4568L119.083 59.4568L114.917 62.0641L114.917 58.6587L119.421 55.8119L123.036 55.8119ZM133.031 71.4912L132.934 72.4667C132.857 73.2471 132.708 74.0245 132.489 74.799C132.276 75.5795 132.051 76.286 131.814 76.9186C131.583 77.5512 131.397 78.0478 131.255 78.4085L128.803 78.4085C128.892 78.0596 129.014 77.5719 129.167 76.9452C129.321 76.3244 129.466 75.6268 129.603 74.8523C129.739 74.0778 129.825 73.2885 129.86 72.4844L129.905 71.4912L133.031 71.4912ZM154.928 63.3944L154.928 66.3919L146.632 66.3919L146.632 63.3944L154.928 63.3944ZM160.105 73.9743L160.105 71.2074L166.58 65.2212C167.13 64.6891 167.592 64.2103 167.965 63.7846C168.344 63.3589 168.631 62.9421 168.827 62.5341C169.022 62.1203 169.12 61.6739 169.12 61.195C169.12 60.6629 168.999 60.2047 168.756 59.8204C168.513 59.4302 168.181 59.1317 167.761 58.9247C167.341 58.7119 166.864 58.6055 166.331 58.6055C165.774 58.6055 165.289 58.7178 164.874 58.9425C164.46 59.1671 164.14 59.4893 163.915 59.9091C163.69 60.3289 163.577 60.8285 163.577 61.4079L159.927 61.4079C159.927 60.2195 160.196 59.1878 160.735 58.3128C161.274 57.4378 162.029 56.7609 163 56.282C163.971 55.8031 165.09 55.5636 166.358 55.5636C167.66 55.5636 168.794 55.7942 169.759 56.2554C170.731 56.7106 171.486 57.3432 172.024 58.1532C172.563 58.9632 172.833 59.8914 172.833 60.9378C172.833 61.6237 172.696 62.3006 172.424 62.9687C172.158 63.6368 171.681 64.3788 170.994 65.1946C170.307 66.0046 169.339 66.9772 168.09 68.1123L165.434 70.7107L165.434 70.8349L173.072 70.8349L173.072 73.9743L160.105 73.9743ZM182.508 71.4912L182.411 72.4667C182.334 73.2471 182.186 74.0245 181.967 74.799C181.753 75.5795 181.528 76.286 181.292 76.9186C181.061 77.5512 180.874 78.0478 180.732 78.4085L178.281 78.4085C178.369 78.0596 178.491 77.5719 178.645 76.9452C178.799 76.3244 178.944 75.6268 179.08 74.8523C179.216 74.0778 179.302 73.2885 179.338 72.4844L179.382 71.4912L182.508 71.4912ZM208.307 71.4912L208.209 72.4667C208.132 73.2471 207.984 74.0245 207.765 74.799C207.552 75.5795 207.327 76.286 207.09 76.9186C206.859 77.5512 206.673 78.0478 206.531 78.4085L204.079 78.4085C204.168 78.0596 204.289 77.5719 204.443 76.9452C204.597 76.3244 204.742 75.6268 204.879 74.8523C205.015 74.0778 205.101 73.2885 205.136 72.4844L205.181 71.4912L208.307 71.4912ZM221.392 70.7817L221.392 67.7576L228.987 55.8119L231.598 55.8119L231.598 59.9978L230.052 59.9978L225.265 67.5625L225.265 67.7044L236.057 67.7044L236.057 70.7817L221.392 70.7817ZM230.124 73.9743L230.124 69.8594L230.195 68.5203L230.195 55.8119L233.801 55.8119L233.801 73.9743L230.124 73.9743ZM243.026 74.2049C242.44 74.2049 241.936 73.9979 241.516 73.5841C241.101 73.1643 240.894 72.6618 240.894 72.0765C240.894 71.4971 241.101 71.0004 241.516 70.5866C241.936 70.1727 242.44 69.9658 243.026 69.9658C243.594 69.9658 244.092 70.1727 244.518 70.5866C244.944 71.0004 245.157 71.4971 245.157 72.0765C245.157 72.4667 245.057 72.8244 244.855 73.1495C244.66 73.4688 244.402 73.726 244.083 73.9211C243.763 74.1103 243.411 74.2049 243.026 74.2049ZM252.977 74.2049C252.391 74.2049 251.887 73.9979 251.467 73.5841C251.052 73.1643 250.845 72.6618 250.845 72.0765C250.845 71.4971 251.052 71.0004 251.467 70.5866C251.887 70.1727 252.391 69.9658 252.977 69.9658C253.545 69.9658 254.043 70.1727 254.469 70.5866C254.895 71.0004 255.109 71.4971 255.109 72.0765C255.109 72.4667 255.008 72.8244 254.807 73.1495C254.611 73.4688 254.354 73.726 254.034 73.9211C253.714 74.1103 253.362 74.2049 252.977 74.2049ZM262.928 74.2049C262.342 74.2049 261.838 73.9979 261.418 73.5841C261.004 73.1643 260.796 72.6618 260.796 72.0765C260.796 71.4971 261.004 71.0004 261.418 70.5866C261.838 70.1727 262.342 69.9658 262.928 69.9658C263.496 69.9658 263.994 70.1727 264.42 70.5866C264.847 71.0004 265.06 71.4971 265.06 72.0765C265.06 72.4667 264.959 72.8244 264.758 73.1495C264.562 73.4688 264.305 73.726 263.985 73.9211C263.665 74.1103 263.313 74.2049 262.928 74.2049ZM278.617 66.6136L278.617 68.3961C277.599 68.3961 276.888 68.6001 276.485 69.008C276.089 69.416 275.89 70.0752 275.89 70.9857L275.89 72.9544C275.89 74.0482 275.736 74.9232 275.428 75.5795C275.126 76.2416 274.7 76.7412 274.149 77.0782C273.605 77.4152 272.956 77.6399 272.204 77.7522C271.458 77.8645 270.635 77.9207 269.735 77.9207L269.735 75.0917C270.434 75.0917 270.964 75.0001 271.325 74.8168C271.692 74.6394 271.941 74.3615 272.071 73.9832C272.201 73.6107 272.266 73.1407 272.266 72.5731L272.266 69.9835C272.266 69.5283 272.349 69.0997 272.515 68.6976C272.681 68.2897 272.989 67.932 273.439 67.6246C273.889 67.3112 274.531 67.0659 275.366 66.8885C276.201 66.7052 277.285 66.6136 278.617 66.6136ZM269.735 55.475C270.635 55.475 271.458 55.5311 272.204 55.6434C272.956 55.7558 273.605 55.9804 274.149 56.3174C274.7 56.6544 275.126 57.154 275.428 57.8162C275.736 58.4724 275.89 59.3475 275.89 60.4412L275.89 62.4011C275.89 63.3116 276.089 63.9708 276.485 64.3788C276.888 64.7867 277.599 64.9907 278.617 64.9907L278.617 66.7732C277.285 66.7732 276.201 66.6845 275.366 66.5072C274.531 66.3239 273.889 66.0785 273.439 65.7711C272.989 65.4577 272.681 65.1 272.515 64.698C272.349 64.2901 272.266 63.8614 272.266 63.4121L272.266 60.8226C272.266 60.2491 272.201 59.7761 272.071 59.4036C271.941 59.0252 271.692 58.7474 271.325 58.57C270.964 58.3867 270.434 58.2951 269.735 58.2951L269.735 55.475ZM278.617 64.9907L278.617 68.3961L275.428 68.3961L275.428 64.9907L278.617 64.9907Z" fill="black"/>
<defs>
<filter id="filter0_d_407_4" x="2.479" y="2.97466" width="310.644" height="133.541" filterUnits="userSpaceOnUse" color-interpolation-filters="sRGB">
<feFlood flood-opacity="0" result="BackgroundImageFix"/>
<feColorMatrix in="SourceAlpha" type="matrix" values="0 0 0 0 0 0 0 0 0 0 0 0 0 0 0 0 0 0 127 0" result="hardAlpha"/>
<feMorphology radius="3" operator="dilate" in="SourceAlpha" result="effect1_dropShadow_407_4"/>
<feOffset dx="4" dy="4"/>
<feGaussianBlur stdDeviation="2"/>
<feComposite in2="hardAlpha" operator="out"/>
<feColorMatrix type="matrix" values="0 0 0 0 0 0 0 0 0 0 0 0 0 0 0 0 0 0 0.13 0"/>
<feBlend mode="normal" in2="BackgroundImageFix" result="effect1_dropShadow_407_4"/>
<feBlend mode="normal" in="SourceGraphic" in2="effect1_dropShadow_407_4" result="shape"/>
</filter>
</defs>
</svg>
