<svg width="459" height="120" viewBox="0 0 459 120" fill="none" xmlns="http://www.w3.org/2000/svg">
<g filter="url(#filter0_d_419_24)">
<rect width="444.729" height="75.277" rx="10" transform="matrix(0.998483 -0.00219886 0.000838562 1.00058 3.38782 22.4767)" fill="white"/>
<rect x="1.49898" y="1.49757" width="441.729" height="72.277" rx="8.5" transform="matrix(0.998483 -0.00219886 0.000838562 1.00058 3.38884 22.4792)" stroke="#CCCCCC" stroke-width="3"/>
</g>
<path d="M17.6399 64.882L17.6399 51.0639L23.1726 51.0639C24.1891 51.0639 25.037 51.2145 25.7162 51.5159C26.3955 51.8173 26.906 52.2356 27.2479 52.7709C27.5897 53.3017 27.7606 53.9134 27.7606 54.6061C27.7606 55.1459 27.6527 55.6204 27.4368 56.0298C27.2209 56.4346 26.924 56.7675 26.5461 57.0283C26.1728 57.2847 25.7455 57.4669 25.2642 57.5749L25.2642 57.7098C25.7905 57.7323 26.283 57.8807 26.7418 58.1551C27.2051 58.4295 27.5807 58.8141 27.8686 59.3089C28.1565 59.7992 28.3004 60.3839 28.3004 61.0631C28.3004 61.7963 28.1182 62.4508 27.7539 63.0266C27.394 63.5978 26.861 64.0499 26.1548 64.3827C25.4486 64.7156 24.5782 64.882 23.5437 64.882L17.6399 64.882ZM20.5614 62.4935L22.9432 62.4935C23.7573 62.4935 24.3511 62.3384 24.7244 62.028C25.0978 61.7131 25.2844 61.2948 25.2844 60.773C25.2844 60.3907 25.1922 60.0533 25.0078 59.7609C24.8234 59.4686 24.5602 59.2392 24.2184 59.0727C23.881 58.9063 23.4784 58.8231 23.0106 58.8231L20.5614 58.8231L20.5614 62.4935ZM20.5614 56.8462L22.7273 56.8462C23.1276 56.8462 23.4829 56.7764 23.7933 56.637C24.1082 56.4931 24.3556 56.2907 24.5355 56.0298C24.7199 55.7689 24.8121 55.4563 24.8121 55.0919C24.8121 54.5926 24.6345 54.19 24.2791 53.8842C23.9283 53.5783 23.429 53.4254 22.7812 53.4254L20.5614 53.4254L20.5614 56.8462ZM46.6979 56.8327L46.6979 59.1132L37.1979 59.1132L37.1979 56.8327L46.6979 56.8327ZM68.7945 57.9729C68.7945 59.4798 68.5089 60.7618 67.9376 61.8188C67.3708 62.8759 66.5972 63.6833 65.6166 64.2411C64.6405 64.7943 63.543 65.071 62.324 65.071C61.096 65.071 59.9939 64.7921 59.0179 64.2343C58.0418 63.6765 57.2703 62.8691 56.7036 61.8121C56.1368 60.755 55.8534 59.4753 55.8534 57.9729C55.8534 56.4661 56.1368 55.1841 56.7036 54.1271C57.2703 53.07 58.0418 52.2648 59.0179 51.7116C59.9939 51.1538 61.096 50.8749 62.324 50.8749C63.543 50.8749 64.6405 51.1538 65.6166 51.7116C66.5972 52.2648 67.3708 53.07 67.9376 54.1271C68.5089 55.1841 68.7945 56.4661 68.7945 57.9729ZM65.8325 57.9729C65.8325 56.9969 65.6863 56.1737 65.3939 55.5035C65.106 54.8333 64.699 54.325 64.1727 53.9786C63.6464 53.6323 63.0302 53.4591 62.324 53.4591C61.6178 53.4591 61.0015 53.6323 60.4752 53.9786C59.949 54.325 59.5396 54.8333 59.2473 55.5035C58.9594 56.1737 58.8154 56.9969 58.8154 57.9729C58.8154 58.949 58.9594 59.7722 59.2473 60.4424C59.5396 61.1126 59.949 61.6209 60.4752 61.9673C61.0015 62.3136 61.6178 62.4868 62.324 62.4868C63.0302 62.4868 63.6464 62.3136 64.1727 61.9673C64.699 61.6209 65.106 61.1126 65.3939 60.4424C65.6863 59.7722 65.8325 58.949 65.8325 57.9729ZM78.3778 54.5184L78.3778 56.6775L71.9815 56.6775L71.9815 54.5184L78.3778 54.5184ZM73.4456 64.882L73.4456 53.7695C73.4456 53.0183 73.5918 52.3953 73.8842 51.9005C74.1811 51.4057 74.5859 51.0346 75.0987 50.7872C75.6115 50.5398 76.194 50.4161 76.8462 50.4161C77.287 50.4161 77.6896 50.4499 78.054 50.5173C78.4228 50.5848 78.6972 50.6455 78.8771 50.6995L78.3643 52.8586C78.2519 52.8226 78.1124 52.7889 77.946 52.7574C77.7841 52.7259 77.6176 52.7102 77.4467 52.7102C77.0239 52.7102 76.7293 52.8091 76.5628 53.007C76.3964 53.2005 76.3132 53.4726 76.3132 53.8234L76.3132 64.882L73.4456 64.882ZM93.0138 65.0844C91.9657 65.0844 91.0593 64.8618 90.2947 64.4165C89.5345 63.9667 88.9475 63.3414 88.5336 62.5408C88.1198 61.7356 87.9129 60.8023 87.9129 59.7407C87.9129 58.6701 88.1198 57.7345 88.5336 56.9339C88.9475 56.1287 89.5345 55.5035 90.2947 55.0582C91.0593 54.6084 91.9657 54.3835 93.0138 54.3835C94.0618 54.3835 94.9659 54.6084 95.7261 55.0582C96.4908 55.5035 97.08 56.1287 97.4939 56.9339C97.9077 57.7345 98.1146 58.6701 98.1146 59.7407C98.1146 60.8023 97.9077 61.7356 97.4939 62.5408C97.08 63.3414 96.4908 63.9667 95.7261 64.4165C94.9659 64.8618 94.0618 65.0844 93.0138 65.0844ZM93.0273 62.8579C93.5041 62.8579 93.9021 62.7229 94.2215 62.4531C94.5409 62.1787 94.7815 61.8053 94.9434 61.333C95.1099 60.8607 95.1931 60.3232 95.1931 59.7205C95.1931 59.1177 95.1099 58.5802 94.9434 58.1079C94.7815 57.6356 94.5409 57.2622 94.2215 56.9879C93.9021 56.7135 93.5041 56.5763 93.0273 56.5763C92.546 56.5763 92.1411 56.7135 91.8128 56.9879C91.4889 57.2622 91.2438 57.6356 91.0773 58.1079C90.9154 58.5802 90.8344 59.1177 90.8344 59.7205C90.8344 60.3232 90.9154 60.8607 91.0773 61.333C91.2438 61.8053 91.4889 62.1787 91.8128 62.4531C92.1411 62.7229 92.546 62.8579 93.0273 62.8579ZM101.884 64.882L101.884 54.5184L104.67 54.5184L104.67 56.3266L104.778 56.3266C104.967 55.6834 105.284 55.1976 105.729 54.8693C106.175 54.5364 106.688 54.37 107.268 54.37C107.412 54.37 107.567 54.379 107.733 54.3969C107.9 54.4149 108.046 54.4397 108.172 54.4712L108.172 57.0216C108.037 56.9811 107.85 56.9451 107.612 56.9136C107.374 56.8822 107.155 56.8664 106.957 56.8664C106.535 56.8664 106.157 56.9586 105.824 57.143C105.496 57.323 105.235 57.5749 105.041 57.8987C104.852 58.2226 104.758 58.5959 104.758 59.0188L104.758 64.882L101.884 64.882ZM130.608 57.9729C130.608 59.4798 130.322 60.7618 129.751 61.8188C129.184 62.8759 128.41 63.6833 127.43 64.2411C126.454 64.7943 125.356 65.071 124.137 65.071C122.909 65.071 121.807 64.7921 120.831 64.2343C119.855 63.6765 119.083 62.8691 118.517 61.8121C117.95 60.755 117.667 59.4753 117.667 57.9729C117.667 56.4661 117.95 55.1841 118.517 54.1271C119.083 53.07 119.855 52.2648 120.831 51.7116C121.807 51.1538 122.909 50.8749 124.137 50.8749C125.356 50.8749 126.454 51.1538 127.43 51.7116C128.41 52.2648 129.184 53.07 129.751 54.1271C130.322 55.1841 130.608 56.4661 130.608 57.9729ZM127.646 57.9729C127.646 56.9969 127.499 56.1737 127.207 55.5035C126.919 54.8333 126.512 54.325 125.986 53.9786C125.459 53.6323 124.843 53.4591 124.137 53.4591C123.431 53.4591 122.815 53.6323 122.288 53.9786C121.762 54.325 121.353 54.8333 121.06 55.5035C120.772 56.1737 120.629 56.9969 120.629 57.9729C120.629 58.949 120.772 59.7722 121.06 60.4424C121.353 61.1126 121.762 61.6209 122.288 61.9673C122.815 62.3136 123.431 62.4868 124.137 62.4868C124.843 62.4868 125.459 62.3136 125.986 61.9673C126.512 61.6209 126.919 61.1126 127.207 60.4424C127.499 59.7722 127.646 58.949 127.646 57.9729ZM134.618 64.882L134.618 54.5184L137.404 54.5184L137.404 56.3266L137.512 56.3266C137.701 55.6834 138.018 55.1976 138.464 54.8693C138.909 54.5364 139.422 54.37 140.002 54.37C140.146 54.37 140.301 54.379 140.468 54.3969C140.634 54.4149 140.78 54.4397 140.906 54.4712L140.906 57.0216C140.771 56.9811 140.584 56.9451 140.346 56.9136C140.108 56.8822 139.89 56.8664 139.692 56.8664C139.269 56.8664 138.891 56.9586 138.558 57.143C138.23 57.323 137.969 57.5749 137.775 57.8987C137.587 58.2226 137.492 58.5959 137.492 59.0188L137.492 64.882L134.618 64.882ZM147.629 65.0507C146.841 65.0507 146.129 64.8483 145.49 64.4435C144.856 64.0341 144.352 63.4336 143.978 62.642C143.61 61.8458 143.425 60.8697 143.425 59.7137C143.425 58.5262 143.616 57.5389 143.999 56.7517C144.381 55.96 144.889 55.3685 145.524 54.9772C146.162 54.5814 146.862 54.3835 147.622 54.3835C148.202 54.3835 148.686 54.4824 149.073 54.6803C149.464 54.8737 149.779 55.1166 150.017 55.409C150.26 55.6969 150.444 55.9803 150.57 56.2592L150.658 56.2592L150.658 51.0639L153.526 51.0639L153.526 64.882L150.692 64.882L150.692 63.2222L150.57 63.2222C150.435 63.5101 150.244 63.7957 149.997 64.0791C149.754 64.358 149.437 64.5897 149.046 64.7741C148.659 64.9585 148.186 65.0507 147.629 65.0507ZM148.54 62.7634C149.003 62.7634 149.394 62.6375 149.714 62.3856C150.037 62.1292 150.285 61.7716 150.456 61.3128C150.631 60.854 150.719 60.3165 150.719 59.7002C150.719 59.084 150.633 58.5487 150.462 58.0944C150.292 57.6401 150.044 57.2892 149.72 57.0418C149.396 56.7944 149.003 56.6707 148.54 56.6707C148.067 56.6707 147.669 56.7989 147.345 57.0553C147.021 57.3117 146.776 57.6671 146.61 58.1214C146.443 58.5757 146.36 59.102 146.36 59.7002C146.36 60.303 146.443 60.836 146.61 61.2993C146.781 61.7581 147.026 62.1179 147.345 62.3788C147.669 62.6352 148.067 62.7634 148.54 62.7634ZM162.512 65.0844C161.446 65.0844 160.528 64.8685 159.759 64.4367C158.994 64.0004 158.405 63.3842 157.991 62.588C157.577 61.7873 157.371 60.8405 157.371 59.7474C157.371 58.6814 157.577 57.7458 157.991 56.9406C158.405 56.1355 158.988 55.508 159.739 55.0582C160.494 54.6084 161.381 54.3835 162.397 54.3835C163.081 54.3835 163.717 54.4937 164.307 54.7141C164.9 54.93 165.418 55.2561 165.858 55.6924C166.304 56.1287 166.65 56.6775 166.898 57.3387C167.145 57.9954 167.269 58.7646 167.269 59.6462L167.269 60.4357L158.518 60.4357L158.518 58.6544L164.563 58.6544C164.563 58.2406 164.473 57.874 164.293 57.5546C164.113 57.2353 163.864 56.9856 163.544 56.8057C163.229 56.6213 162.863 56.5291 162.444 56.5291C162.008 56.5291 161.621 56.6303 161.284 56.8327C160.951 57.0306 160.69 57.2982 160.501 57.6356C160.312 57.9684 160.216 58.3395 160.211 58.7489L160.211 60.4424C160.211 60.9552 160.306 61.3983 160.494 61.7716C160.688 62.1449 160.96 62.4328 161.311 62.6352C161.662 62.8376 162.078 62.9389 162.559 62.9389C162.878 62.9389 163.171 62.8939 163.436 62.8039C163.702 62.7139 163.929 62.579 164.118 62.3991C164.307 62.2192 164.451 61.9987 164.549 61.7379L167.208 61.9133C167.073 62.552 166.796 63.1098 166.378 63.5866C165.964 64.0589 165.429 64.4277 164.772 64.6931C164.12 64.954 163.366 65.0844 162.512 65.0844ZM171.044 64.882L171.044 54.5184L173.831 54.5184L173.831 56.3266L173.939 56.3266C174.128 55.6834 174.445 55.1976 174.89 54.8693C175.336 54.5364 175.848 54.37 176.429 54.37C176.572 54.37 176.728 54.379 176.894 54.3969C177.061 54.4149 177.207 54.4397 177.333 54.4712L177.333 57.0216C177.198 56.9811 177.011 56.9451 176.773 56.9136C176.534 56.8822 176.316 56.8664 176.118 56.8664C175.695 56.8664 175.318 56.9586 174.985 57.143C174.656 57.323 174.395 57.5749 174.202 57.8987C174.013 58.2226 173.919 58.5959 173.919 59.0188L173.919 64.882L171.044 64.882ZM189.342 57.4737L186.71 57.6356C186.665 57.4107 186.569 57.2083 186.42 57.0283C186.272 56.8439 186.076 56.6977 185.833 56.5898C185.595 56.4773 185.309 56.4211 184.976 56.4211C184.531 56.4211 184.155 56.5156 183.849 56.7045C183.544 56.8889 183.391 57.1363 183.391 57.4467C183.391 57.6941 183.49 57.9032 183.687 58.0742C183.885 58.2451 184.225 58.3823 184.706 58.4857L186.582 58.8636C187.59 59.0705 188.341 59.4033 188.836 59.8621C189.33 60.321 189.578 60.9237 189.578 61.6704C189.578 62.3496 189.378 62.9456 188.977 63.4584C188.581 63.9712 188.037 64.3715 187.344 64.6594C186.656 64.9428 185.862 65.0844 184.963 65.0844C183.591 65.0844 182.498 64.7988 181.684 64.2276C180.874 63.6518 180.399 62.8691 180.26 61.8795L183.087 61.7311C183.172 62.1494 183.379 62.4688 183.708 62.6892C184.036 62.9051 184.457 63.0131 184.969 63.0131C185.473 63.0131 185.878 62.9164 186.184 62.7229C186.494 62.525 186.652 62.2709 186.656 61.9605C186.652 61.6996 186.542 61.486 186.326 61.3195C186.11 61.1486 185.777 61.0182 185.327 60.9282L183.532 60.5706C182.52 60.3682 181.767 60.0173 181.272 59.518C180.782 59.0188 180.537 58.3823 180.537 57.6086C180.537 56.9429 180.716 56.3694 181.076 55.8881C181.441 55.4068 181.951 55.0357 182.608 54.7748C183.269 54.5139 184.043 54.3835 184.929 54.3835C186.238 54.3835 187.268 54.6601 188.019 55.2134C188.775 55.7666 189.216 56.5201 189.342 57.4737ZM194.968 65.0575C194.522 65.0575 194.14 64.9 193.821 64.5852C193.506 64.2658 193.348 63.8835 193.348 63.4381C193.348 62.9973 193.506 62.6195 193.821 62.3046C194.14 61.9898 194.522 61.8323 194.968 61.8323C195.4 61.8323 195.777 61.9898 196.101 62.3046C196.425 62.6195 196.587 62.9973 196.587 63.4381C196.587 63.735 196.511 64.0072 196.358 64.2545C196.209 64.4974 196.014 64.6931 195.771 64.8416C195.528 64.9855 195.26 65.0575 194.968 65.0575ZM194.968 57.7975C194.522 57.7975 194.14 57.6401 193.821 57.3252C193.506 57.0103 193.348 56.628 193.348 56.1782C193.348 55.7374 193.506 55.3618 193.821 55.0514C194.14 54.7366 194.522 54.5791 194.968 54.5791C195.4 54.5791 195.777 54.7366 196.101 55.0514C196.425 55.3618 196.587 55.7374 196.587 56.1782C196.587 56.4796 196.511 56.754 196.358 57.0014C196.209 57.2442 196.014 57.4377 195.771 57.5816C195.528 57.7255 195.26 57.7975 194.968 57.7975ZM207.144 68.7684L207.144 54.5184L209.978 54.5184L209.978 56.2592L210.106 56.2592C210.232 55.9803 210.414 55.6969 210.653 55.409C210.896 55.1166 211.211 54.8737 211.597 54.6803C211.989 54.4824 212.475 54.3835 213.055 54.3835C213.81 54.3835 214.508 54.5814 215.146 54.9772C215.785 55.3685 216.296 55.96 216.678 56.7517C217.06 57.5389 217.252 58.5262 217.252 59.7137C217.252 60.8697 217.065 61.8458 216.692 62.642C216.323 63.4336 215.819 64.0341 215.18 64.4435C214.546 64.8483 213.835 65.0507 213.048 65.0507C212.49 65.0507 212.016 64.9585 211.624 64.7741C211.238 64.5897 210.92 64.358 210.673 64.0791C210.426 63.7957 210.237 63.5101 210.106 63.2222L210.019 63.2222L210.019 68.7684L207.144 68.7684ZM209.958 59.7002C209.958 60.3165 210.043 60.854 210.214 61.3128C210.385 61.7716 210.633 62.1292 210.956 62.3856C211.28 62.6375 211.674 62.7634 212.137 62.7634C212.605 62.7634 213.001 62.6352 213.325 62.3788C213.649 62.1179 213.894 61.7581 214.06 61.2993C214.231 60.836 214.317 60.303 214.317 59.7002C214.317 59.102 214.233 58.5757 214.067 58.1214C213.9 57.6671 213.655 57.3117 213.331 57.0553C213.008 56.7989 212.61 56.6707 212.137 56.6707C211.669 56.6707 211.274 56.7944 210.95 57.0418C210.63 57.2892 210.385 57.6401 210.214 58.0944C210.043 58.5487 209.958 59.084 209.958 59.7002ZM225.75 65.0844C224.702 65.0844 223.796 64.8618 223.031 64.4165C222.271 63.9667 221.684 63.3414 221.27 62.5408C220.856 61.7356 220.649 60.8023 220.649 59.7407C220.649 58.6701 220.856 57.7345 221.27 56.9339C221.684 56.1287 222.271 55.5035 223.031 55.0582C223.796 54.6084 224.702 54.3835 225.75 54.3835C226.798 54.3835 227.702 54.6084 228.463 55.0582C229.227 55.5035 229.817 56.1287 230.23 56.9339C230.644 57.7345 230.851 58.6701 230.851 59.7407C230.851 60.8023 230.644 61.7356 230.23 62.5408C229.817 63.3414 229.227 63.9667 228.463 64.4165C227.702 64.8618 226.798 65.0844 225.75 65.0844ZM225.764 62.8579C226.241 62.8579 226.639 62.7229 226.958 62.4531C227.277 62.1787 227.518 61.8053 227.68 61.333C227.846 60.8607 227.93 60.3232 227.93 59.7205C227.93 59.1177 227.846 58.5802 227.68 58.1079C227.518 57.6356 227.277 57.2622 226.958 56.9879C226.639 56.7135 226.241 56.5763 225.764 56.5763C225.282 56.5763 224.878 56.7135 224.549 56.9879C224.225 57.2622 223.98 57.6356 223.814 58.1079C223.652 58.5802 223.571 59.1177 223.571 59.7205C223.571 60.3232 223.652 60.8607 223.814 61.333C223.98 61.8053 224.225 62.1787 224.549 62.4531C224.878 62.7229 225.282 62.8579 225.764 62.8579ZM236.405 64.882L233.584 54.5184L236.492 54.5184L238.098 61.4815L238.193 61.4815L239.866 54.5184L242.72 54.5184L244.42 61.441L244.508 61.441L246.087 54.5184L248.988 54.5184L246.175 64.882L243.132 64.882L241.35 58.3643L241.222 58.3643L239.441 64.882L236.405 64.882ZM256.885 65.0844C255.819 65.0844 254.901 64.8685 254.132 64.4367C253.367 64.0004 252.778 63.3842 252.364 62.588C251.95 61.7873 251.743 60.8405 251.743 59.7474C251.743 58.6814 251.95 57.7458 252.364 56.9406C252.778 56.1355 253.36 55.508 254.112 55.0582C254.867 54.6084 255.753 54.3835 256.77 54.3835C257.454 54.3835 258.09 54.4937 258.679 54.7141C259.273 54.93 259.79 55.2561 260.231 55.6924C260.677 56.1287 261.023 56.6775 261.27 57.3387C261.518 57.9954 261.641 58.7646 261.641 59.6462L261.641 60.4357L252.89 60.4357L252.89 58.6544L258.936 58.6544C258.936 58.2406 258.846 57.874 258.666 57.5546C258.486 57.2353 258.236 56.9856 257.917 56.8057C257.602 56.6213 257.236 56.5291 256.817 56.5291C256.381 56.5291 255.994 56.6303 255.657 56.8327C255.324 57.0306 255.063 57.2982 254.874 57.6356C254.685 57.9684 254.588 58.3395 254.584 58.7489L254.584 60.4424C254.584 60.9552 254.678 61.3983 254.867 61.7716C255.061 62.1449 255.333 62.4328 255.684 62.6352C256.035 62.8376 256.451 62.9389 256.932 62.9389C257.251 62.9389 257.544 62.8939 257.809 62.8039C258.074 62.7139 258.302 62.579 258.491 62.3991C258.679 62.2192 258.823 61.9987 258.922 61.7379L261.581 61.9133C261.446 62.552 261.169 63.1098 260.751 63.5866C260.337 64.0589 259.802 64.4277 259.145 64.6931C258.493 64.954 257.739 65.0844 256.885 65.0844ZM265.417 64.882L265.417 54.5184L268.204 54.5184L268.204 56.3266L268.312 56.3266C268.501 55.6834 268.818 55.1976 269.263 54.8692C269.708 54.5364 270.221 54.37 270.801 54.37C270.945 54.37 271.101 54.379 271.267 54.3969C271.433 54.4149 271.58 54.4397 271.706 54.4712L271.706 57.0216C271.571 56.9811 271.384 56.9451 271.145 56.9136C270.907 56.8822 270.689 56.8664 270.491 56.8664C270.068 56.8664 269.69 56.9586 269.357 57.143C269.029 57.323 268.768 57.5749 268.575 57.8987C268.386 58.2226 268.291 58.5959 268.291 59.0188L268.291 64.882L265.417 64.882ZM283.714 57.4737L281.083 57.6356C281.038 57.4107 280.941 57.2083 280.793 57.0283C280.644 56.8439 280.449 56.6977 280.206 56.5898C279.968 56.4773 279.682 56.4211 279.349 56.4211C278.904 56.4211 278.528 56.5156 278.222 56.7045C277.916 56.8889 277.763 57.1363 277.763 57.4467C277.763 57.6941 277.862 57.9032 278.06 58.0742C278.258 58.2451 278.598 58.3823 279.079 58.4857L280.955 58.8636C281.962 59.0705 282.714 59.4033 283.208 59.8621C283.703 60.321 283.951 60.9237 283.951 61.6704C283.951 62.3496 283.75 62.9456 283.35 63.4584C282.954 63.9712 282.41 64.3715 281.717 64.6594C281.029 64.9428 280.235 65.0844 279.336 65.0844C277.964 65.0844 276.871 64.7988 276.056 64.2276C275.247 63.6518 274.772 62.8691 274.633 61.8795L277.46 61.7311C277.545 62.1494 277.752 62.4688 278.081 62.6892C278.409 62.9051 278.83 63.0131 279.342 63.0131C279.846 63.0131 280.251 62.9164 280.557 62.7229C280.867 62.525 281.025 62.2709 281.029 61.9605C281.025 61.6996 280.914 61.486 280.698 61.3195C280.483 61.1486 280.15 61.0182 279.7 60.9282L277.905 60.5706C276.893 60.3682 276.14 60.0173 275.645 59.518C275.155 59.0188 274.909 58.3823 274.909 57.6086C274.909 56.9429 275.089 56.3694 275.449 55.8881C275.814 55.4068 276.324 55.0357 276.981 54.7748C277.642 54.5139 278.416 54.3835 279.302 54.3835C280.611 54.3835 281.641 54.6601 282.392 55.2134C283.148 55.7666 283.589 56.5201 283.714 57.4737ZM290.784 62.9928L290.71 63.735C290.652 64.3288 290.539 64.9203 290.373 65.5095C290.211 66.1033 290.04 66.6408 289.86 67.1221C289.685 67.6034 289.543 67.9812 289.435 68.2556L287.573 68.2556C287.64 67.9902 287.732 67.6191 287.849 67.1423C287.966 66.67 288.077 66.1393 288.18 65.55C288.284 64.9608 288.349 64.3603 288.376 63.7485L288.409 62.9928L290.784 62.9928ZM300.961 64.882L300.961 54.5184L303.747 54.5184L303.747 56.3266L303.855 56.3266C304.044 55.6834 304.361 55.1976 304.806 54.8692C305.252 54.5364 305.764 54.37 306.345 54.37C306.489 54.37 306.644 54.379 306.81 54.3969C306.977 54.4149 307.123 54.4397 307.249 54.4712L307.249 57.0216C307.114 56.9811 306.927 56.9451 306.689 56.9136C306.45 56.8822 306.232 56.8664 306.034 56.8664C305.612 56.8664 305.234 56.9586 304.901 57.143C304.572 57.323 304.312 57.5749 304.118 57.8987C303.929 58.2226 303.835 58.5959 303.835 59.0188L303.835 64.882L300.961 64.882ZM314.835 65.0844C313.787 65.0844 312.881 64.8618 312.116 64.4165C311.356 63.9667 310.769 63.3414 310.355 62.5408C309.941 61.7356 309.734 60.8023 309.734 59.7407C309.734 58.6701 309.941 57.7345 310.355 56.9339C310.769 56.1287 311.356 55.5035 312.116 55.0582C312.881 54.6084 313.787 54.3835 314.835 54.3835C315.883 54.3835 316.787 54.6084 317.547 55.0582C318.312 55.5035 318.901 56.1287 319.315 56.9339C319.729 57.7345 319.936 58.6701 319.936 59.7407C319.936 60.8023 319.729 61.7356 319.315 62.5408C318.901 63.3414 318.312 63.9667 317.547 64.4165C316.787 64.8618 315.883 65.0844 314.835 65.0844ZM314.849 62.8579C315.325 62.8579 315.723 62.7229 316.043 62.4531C316.362 62.1787 316.603 61.8053 316.765 61.333C316.931 60.8607 317.014 60.3232 317.014 59.7205C317.014 59.1177 316.931 58.5802 316.765 58.1079C316.603 57.6356 316.362 57.2622 316.043 56.9879C315.723 56.7135 315.325 56.5763 314.849 56.5763C314.367 56.5763 313.962 56.7135 313.634 56.9879C313.31 57.2622 313.065 57.6356 312.899 58.1079C312.737 58.5802 312.656 59.1177 312.656 59.7205C312.656 60.3232 312.737 60.8607 312.899 61.333C313.065 61.8053 313.31 62.1787 313.634 62.4531C313.962 62.7229 314.367 62.8579 314.849 62.8579ZM328.387 65.0844C327.339 65.0844 326.433 64.8618 325.668 64.4165C324.908 63.9667 324.321 63.3414 323.907 62.5408C323.493 61.7356 323.287 60.8023 323.287 59.7407C323.287 58.6701 323.493 57.7345 323.907 56.9339C324.321 56.1287 324.908 55.5035 325.668 55.0582C326.433 54.6084 327.339 54.3835 328.387 54.3835C329.435 54.3835 330.34 54.6084 331.1 55.0582C331.864 55.5035 332.454 56.1287 332.868 56.9339C333.281 57.7345 333.488 58.6701 333.488 59.7407C333.488 60.8023 333.281 61.7356 332.868 62.5408C332.454 63.3414 331.864 63.9667 331.1 64.4165C330.34 64.8618 329.435 65.0844 328.387 65.0844ZM328.401 62.8579C328.878 62.8579 329.276 62.7229 329.595 62.4531C329.914 62.1787 330.155 61.8053 330.317 61.333C330.484 60.8607 330.567 60.3232 330.567 59.7205C330.567 59.1177 330.484 58.5802 330.317 58.1079C330.155 57.6356 329.914 57.2622 329.595 56.9879C329.276 56.7135 328.878 56.5763 328.401 56.5763C327.92 56.5763 327.515 56.7135 327.186 56.9879C326.863 57.2622 326.617 57.6356 326.451 58.1079C326.289 58.5802 326.208 59.1177 326.208 59.7205C326.208 60.3232 326.289 60.8607 326.451 61.333C326.617 61.8053 326.863 62.1787 327.186 62.4531C327.515 62.7229 327.92 62.8579 328.401 62.8579ZM342.77 54.5184L342.77 56.6775L336.529 56.6775L336.529 54.5184L342.77 54.5184ZM337.945 52.0354L340.82 52.0354L340.82 61.6974C340.82 61.9628 340.86 62.1697 340.941 62.3181C341.022 62.4621 341.135 62.5633 341.279 62.6217C341.427 62.6802 341.598 62.7094 341.791 62.7094C341.926 62.7094 342.061 62.6982 342.196 62.6757C342.331 62.6487 342.435 62.6285 342.506 62.615L342.959 64.7538C342.815 64.7988 342.612 64.8505 342.351 64.909C342.09 64.972 341.773 65.0102 341.4 65.0237C340.707 65.0507 340.1 64.9585 339.578 64.7471C339.061 64.5357 338.658 64.2073 338.37 63.762C338.083 63.3167 337.941 62.7544 337.945 62.0752L337.945 52.0354ZM355.035 57.4737L352.404 57.6356C352.359 57.4107 352.262 57.2083 352.113 57.0283C351.965 56.8439 351.769 56.6977 351.526 56.5898C351.288 56.4773 351.002 56.4211 350.67 56.4211C350.224 56.4211 349.849 56.5156 349.543 56.7045C349.237 56.8889 349.084 57.1363 349.084 57.4467C349.084 57.6941 349.183 57.9032 349.381 58.0742C349.579 58.2451 349.918 58.3823 350.4 58.4857L352.275 58.8636C353.283 59.0705 354.034 59.4033 354.529 59.8621C355.024 60.321 355.271 60.9237 355.271 61.6704C355.271 62.3496 355.071 62.9456 354.671 63.4584C354.275 63.9712 353.73 64.3715 353.038 64.6594C352.35 64.9428 351.556 65.0844 350.656 65.0844C349.284 65.0844 348.191 64.7988 347.377 64.2276C346.567 63.6518 346.093 62.8691 345.953 61.8795L348.78 61.7311C348.866 62.1494 349.073 62.4688 349.401 62.6892C349.729 62.9051 350.15 63.0131 350.663 63.0131C351.167 63.0131 351.571 62.9164 351.877 62.7229C352.188 62.525 352.345 62.2709 352.35 61.9605C352.345 61.6996 352.235 61.486 352.019 61.3195C351.803 61.1486 351.47 61.0182 351.02 60.9282L349.226 60.5706C348.214 60.3682 347.46 60.0173 346.965 59.518C346.475 59.0188 346.23 58.3823 346.23 57.6086C346.23 56.9429 346.41 56.3694 346.77 55.8881C347.134 55.4068 347.645 55.0357 348.301 54.7748C348.962 54.5139 349.736 54.3835 350.622 54.3835C351.931 54.3835 352.961 54.6601 353.712 55.2134C354.468 55.7666 354.909 56.5201 355.035 57.4737ZM362.105 62.9928L362.031 63.735C361.972 64.3288 361.86 64.9203 361.693 65.5095C361.531 66.1033 361.361 66.6408 361.181 67.1221C361.005 67.6034 360.863 67.9812 360.756 68.2556L358.893 68.2556C358.961 67.9902 359.053 67.6191 359.17 67.1423C359.287 66.67 359.397 66.1393 359.501 65.55C359.604 64.9608 359.669 64.3603 359.696 63.7485L359.73 62.9928L362.105 62.9928ZM377.004 65.0844C375.938 65.0844 375.02 64.8685 374.251 64.4367C373.487 64.0004 372.897 63.3842 372.483 62.588C372.07 61.7873 371.863 60.8405 371.863 59.7474C371.863 58.6814 372.07 57.7458 372.483 56.9406C372.897 56.1355 373.48 55.508 374.231 55.0582C374.987 54.6084 375.873 54.3835 376.889 54.3835C377.573 54.3835 378.21 54.4937 378.799 54.7141C379.393 54.93 379.91 55.2561 380.351 55.6924C380.796 56.1287 381.142 56.6775 381.39 57.3387C381.637 57.9954 381.761 58.7646 381.761 59.6462L381.761 60.4357L373.01 60.4357L373.01 58.6544L379.055 58.6544C379.055 58.2406 378.965 57.874 378.785 57.5546C378.605 57.2353 378.356 56.9856 378.036 56.8057C377.721 56.6213 377.355 56.5291 376.937 56.5291C376.5 56.5291 376.113 56.6303 375.776 56.8327C375.443 57.0306 375.182 57.2982 374.993 57.6356C374.804 57.9684 374.708 58.3395 374.703 58.7489L374.703 60.4424C374.703 60.9552 374.798 61.3983 374.987 61.7716C375.18 62.1449 375.452 62.4328 375.803 62.6352C376.154 62.8376 376.57 62.9389 377.051 62.9389C377.371 62.9389 377.663 62.8939 377.928 62.8039C378.194 62.7139 378.421 62.579 378.61 62.3991C378.799 62.2192 378.943 61.9987 379.042 61.7379L381.7 61.9133C381.565 62.552 381.288 63.1098 380.87 63.5866C380.456 64.0589 379.921 64.4277 379.264 64.6931C378.612 64.954 377.859 65.0844 377.004 65.0844ZM391.049 54.5184L391.049 56.6775L384.808 56.6775L384.808 54.5184L391.049 54.5184ZM386.225 52.0354L389.099 52.0354L389.099 61.6974C389.099 61.9628 389.139 62.1697 389.22 62.3181C389.301 62.4621 389.414 62.5633 389.558 62.6217C389.706 62.6802 389.877 62.7094 390.071 62.7094C390.206 62.7094 390.34 62.6982 390.475 62.6757C390.61 62.6487 390.714 62.6285 390.786 62.615L391.238 64.7538C391.094 64.7988 390.891 64.8505 390.631 64.909C390.37 64.972 390.053 65.0102 389.679 65.0237C388.987 65.0507 388.379 64.9585 387.858 64.7471C387.34 64.5357 386.938 64.2073 386.65 63.762C386.362 63.3167 386.22 62.7544 386.225 62.0752L386.225 52.0354ZM399.392 65.0844C398.331 65.0844 397.418 64.8595 396.653 64.4097C395.893 63.9554 395.308 63.3257 394.899 62.5205C394.494 61.7154 394.292 60.7888 394.292 59.7407C394.292 58.6791 394.496 57.748 394.906 56.9474C395.319 56.1422 395.906 55.5147 396.667 55.0649C397.427 54.6106 398.331 54.3835 399.379 54.3835C400.283 54.3835 401.075 54.5476 401.754 54.876C402.433 55.2044 402.971 55.6654 403.367 56.2592C403.762 56.8529 403.981 57.5501 404.021 58.3508L401.309 58.3508C401.232 57.8335 401.03 57.4174 400.701 57.1026C400.378 56.7832 399.952 56.6235 399.426 56.6235C398.981 56.6235 398.592 56.745 398.259 56.9879C397.931 57.2263 397.674 57.5749 397.49 58.0337C397.305 58.4925 397.213 59.048 397.213 59.7002C397.213 60.3614 397.303 60.9237 397.483 61.387C397.667 61.8503 397.926 62.2034 398.259 62.4463C398.592 62.6892 398.981 62.8107 399.426 62.8107C399.755 62.8107 400.049 62.7432 400.31 62.6082C400.575 62.4733 400.794 62.2776 400.965 62.0212C401.14 61.7603 401.255 61.4477 401.309 61.0834L404.021 61.0834C403.976 61.875 403.76 62.5723 403.373 63.175C402.991 63.7733 402.462 64.2411 401.788 64.5784C401.113 64.9158 400.315 65.0844 399.392 65.0844Z" fill="black"/>
<defs>
<filter id="filter0_d_419_24" x="0.396179" y="18.5208" width="458.101" height="90.2545" filterUnits="userSpaceOnUse" color-interpolation-filters="sRGB">
<feFlood flood-opacity="0" result="BackgroundImageFix"/>
<feColorMatrix in="SourceAlpha" type="matrix" values="0 0 0 0 0 0 0 0 0 0 0 0 0 0 0 0 0 0 127 0" result="hardAlpha"/>
<feMorphology radius="3" operator="dilate" in="SourceAlpha" result="effect1_dropShadow_419_24"/>
<feOffset dx="4" dy="4"/>
<feGaussianBlur stdDeviation="2"/>
<feComposite in2="hardAlpha" operator="out"/>
<feColorMatrix type="matrix" values="0 0 0 0 0 0 0 0 0 0 0 0 0 0 0 0 0 0 0.13 0"/>
<feBlend mode="normal" in2="BackgroundImageFix" result="effect1_dropShadow_419_24"/>
<feBlend mode="normal" in="SourceGraphic" in2="effect1_dropShadow_419_24" result="shape"/>
</filter>
</defs>
</svg>
