<svg width="179" height="85" viewBox="0 0 179 85" fill="none" xmlns="http://www.w3.org/2000/svg">
<g filter="url(#filter0_d_419_10)">
<rect width="162.976" height="69.4548" rx="10" transform="matrix(1.00046 -0.000968531 0.00190473 0.999095 3.90839 3.62808)" fill="white"/>
<rect x="1.50355" y="1.49719" width="159.976" height="66.4548" rx="8.5" transform="matrix(1.00046 -0.000968531 0.00190473 0.999095 3.90484 3.63089)" stroke="#CCCCCC" stroke-width="3"/>
</g>
<path d="M22.4785 43.5679L22.3631 28.2956L25.5399 28.2716L25.5832 34.0136L25.6802 34.0129C25.8171 33.7036 26.016 33.3889 26.2771 33.0687C26.5431 32.7435 26.8891 32.4724 27.315 32.2554C27.7459 32.0334 28.282 31.92 28.9233 31.9151C29.7585 31.9088 30.5307 32.1218 31.24 32.5539C31.9492 32.9811 32.5184 33.6306 32.9476 34.5024C33.3767 35.3692 33.5963 36.4588 33.6062 37.7713C33.6158 39.0489 33.4177 40.1293 33.0117 41.0124C32.6107 41.8904 32.0589 42.5583 31.3563 43.016C30.6587 43.4688 29.875 43.6984 29.0049 43.705C28.3885 43.7097 27.8632 43.6117 27.4292 43.4111C27.0001 43.2105 26.6477 42.9572 26.3719 42.651C26.0961 42.3399 25.8849 42.0258 25.7383 41.7087L25.5967 41.7097L25.6105 43.5442L22.4785 43.5679ZM25.5449 37.8173C25.55 38.4984 25.649 39.0917 25.8417 39.5974C26.0345 40.103 26.3109 40.4962 26.671 40.7769C27.031 41.0526 27.4671 41.1885 27.9791 41.1846C28.4962 41.1807 28.9326 41.0357 29.2884 40.7496C29.6441 40.4586 29.9121 40.0588 30.0922 39.5504C30.2772 39.0369 30.3672 38.447 30.3622 37.7809C30.3572 37.1197 30.2608 36.5387 30.0731 36.038C29.8854 35.5372 29.6115 35.1465 29.2514 34.8659C28.8913 34.5852 28.4502 34.4468 27.9282 34.4508C27.4112 34.4547 26.9748 34.5947 26.6189 34.8709C26.268 35.147 26 35.5368 25.8148 36.0403C25.6297 36.5439 25.5397 37.1362 25.5449 37.8173Z" fill="white"/>
<path d="M37.9287 43.4511L37.8132 28.1788L43.9281 28.1326C45.0517 28.1241 45.9901 28.2836 46.7433 28.611C47.4965 28.9384 48.0642 29.3965 48.4465 29.9852C48.8288 30.569 49.0228 31.2437 49.0286 32.0093C49.0331 32.6059 48.9177 33.1313 48.6825 33.5855C48.4473 34.0347 48.122 34.4051 47.7065 34.6966C47.296 34.9831 46.8253 35.188 46.2942 35.3113L46.2954 35.4605C46.8772 35.4809 47.4228 35.6409 47.9322 35.9403C48.4466 36.2397 48.8649 36.6616 49.1872 37.2061C49.5095 37.7455 49.6734 38.3906 49.6791 39.1413C49.6852 39.9517 49.4893 40.6765 49.0915 41.3159C48.6985 41.9503 48.1132 42.4544 47.3354 42.8282C46.5577 43.202 45.5971 43.3932 44.4537 43.4018L37.9287 43.4511ZM41.1377 40.7869L43.77 40.767C44.6699 40.7602 45.3248 40.5837 45.7349 40.2376C46.1449 39.8864 46.3477 39.4225 46.3433 38.8459C46.3401 38.4233 46.2354 38.0512 46.0291 37.7296C45.8228 37.408 45.5301 37.1566 45.1509 36.9755C44.7766 36.7944 44.331 36.7058 43.814 36.7097L41.107 36.7302L41.1377 40.7869ZM41.0905 34.5452L43.4842 34.5271C43.9267 34.5238 44.3189 34.4438 44.6607 34.2871C45.0075 34.1253 45.2793 33.8996 45.476 33.6097C45.6776 33.3198 45.7769 32.9735 45.7739 32.5709C45.7697 32.019 45.57 31.5756 45.1747 31.2405C44.7843 30.9053 44.2312 30.7405 43.5153 30.7459L41.0619 30.7644L41.0905 34.5452ZM60.9216 34.3804L60.9407 36.901L53.9757 36.9536L53.9566 34.4331L60.9216 34.3804ZM65.8554 43.2401L65.74 27.9678L71.8549 27.9216C72.9784 27.9131 73.9168 28.0725 74.67 28.4C75.4232 28.7274 75.991 29.1855 76.3733 29.7742C76.7555 30.358 76.9495 31.0327 76.9553 31.7983C76.9598 32.3948 76.8445 32.9202 76.6093 33.3744C76.374 33.8237 76.0487 34.194 75.6333 34.4855C75.2228 34.772 74.752 34.9769 74.221 35.1003L74.2221 35.2494C74.8039 35.2699 75.3496 35.4298 75.8589 35.7293C76.3733 36.0286 76.7916 36.4506 77.1139 36.995C77.4362 37.5345 77.6002 38.1796 77.6058 38.9303C77.612 39.7406 77.4161 40.4655 77.0182 41.1049C76.6253 41.7393 76.0399 42.2433 75.2622 42.6171C74.4844 42.9909 73.5239 43.1821 72.3804 43.1908L65.8554 43.2401ZM69.0644 40.5758L71.6968 40.5559C72.5966 40.5491 73.2516 40.3727 73.6616 40.0265C74.0716 39.6754 74.2744 39.2115 74.2701 38.6348C74.2669 38.2122 74.1621 37.8401 73.9559 37.5185C73.7496 37.1969 73.4568 36.9456 73.0776 36.7645C72.7034 36.5834 72.2577 36.4948 71.7407 36.4987L69.0337 36.5191L69.0644 40.5758ZM69.0172 34.3342L71.411 34.3161C71.8534 34.3127 72.2456 34.2327 72.5875 34.076C72.9343 33.9143 73.206 33.6885 73.4027 33.3987C73.6043 33.1088 73.7036 32.7625 73.7006 32.3598C73.6964 31.808 73.4967 31.3645 73.1014 31.0294C72.7111 30.6943 72.158 30.5294 71.4421 30.5349L68.9887 30.5534L69.0172 34.3342ZM81.7791 43.1197L81.6925 31.6655L84.7723 31.6422L84.7874 33.6408L84.9067 33.6399C85.1102 32.9274 85.4566 32.3878 85.946 32.0212C86.4354 31.6496 87.0008 31.4613 87.6421 31.4565C87.8012 31.4553 87.9728 31.4639 88.1569 31.4824C88.341 31.5009 88.5027 31.5271 88.6422 31.5608L88.6635 34.3796C88.514 34.336 88.3074 34.2978 88.0437 34.265C87.7799 34.2322 87.5387 34.2166 87.3199 34.2182C86.8526 34.2218 86.4358 34.3268 86.0694 34.5335C85.708 34.7351 85.4218 35.0156 85.2107 35.3752C85.0046 35.7347 84.9033 36.1481 84.9069 36.6155L84.9558 43.0957L81.7791 43.1197ZM95.4113 43.233C94.6805 43.2385 94.0283 43.1167 93.4546 42.8674C92.881 42.6132 92.4257 42.2364 92.0888 41.7368C91.7569 41.2321 91.588 40.602 91.5823 39.8463C91.5775 39.21 91.6903 38.6747 91.9207 38.2404C92.1511 37.8061 92.4666 37.4557 92.8673 37.1892C93.268 36.9227 93.7239 36.7203 94.2349 36.5822C94.751 36.4441 95.2921 36.3456 95.8585 36.2866C96.5241 36.212 97.0605 36.1433 97.4678 36.0805C97.8749 36.0128 98.17 35.9161 98.353 35.7905C98.536 35.6648 98.6266 35.4801 98.6248 35.2365L98.6244 35.1918C98.6209 34.7195 98.4689 34.3552 98.1687 34.099C97.8734 33.8427 97.4549 33.7166 96.913 33.7207C96.3413 33.725 95.8873 33.8552 95.5512 34.1113C95.215 34.3624 94.9937 34.6773 94.8871 35.056L91.9472 34.8395C92.0911 34.1424 92.3799 33.5387 92.8135 33.0283C93.2471 32.5129 93.8084 32.1159 94.4974 31.8372C95.1913 31.5536 95.9956 31.4083 96.9104 31.4014C97.5467 31.3966 98.1563 31.4665 98.7391 31.6113C99.3268 31.756 99.8481 31.9832 100.303 32.293C100.763 32.6028 101.126 33.0027 101.393 33.4929C101.66 33.9781 101.797 34.5613 101.802 35.2424L101.86 42.968L98.8474 42.9908L98.8354 41.4024L98.7459 41.4031C98.5647 41.7624 98.321 42.0799 98.0148 42.3557C97.7086 42.6265 97.3399 42.8406 96.9085 42.998C96.4771 43.1504 95.978 43.2287 95.4113 43.233ZM96.3045 41.0337C96.7718 41.0302 97.1838 40.9351 97.5403 40.7484C97.8968 40.5568 98.1758 40.3012 98.3772 39.9814C98.5787 39.6617 98.6778 39.3005 98.6748 38.8978L98.6656 37.6823C98.5667 37.7477 98.4304 37.8084 98.2568 37.8644C98.0882 37.9154 97.8971 37.9641 97.6837 38.0104C97.4702 38.0518 97.2567 38.0907 97.0432 38.1271C96.8297 38.1586 96.636 38.1874 96.4622 38.2135C96.0897 38.271 95.7648 38.3605 95.4873 38.4819C95.2098 38.6033 94.9947 38.7666 94.8422 38.9715C94.6895 39.1716 94.6144 39.4207 94.6166 39.719C94.6199 40.1515 94.779 40.4809 95.0939 40.7073C95.4138 40.9286 95.8173 41.0374 96.3045 41.0337ZM111.602 43.1181C110.428 43.127 109.417 42.886 108.568 42.3953C107.724 41.8995 107.073 41.2084 106.614 40.3219C106.16 39.4354 105.928 38.413 105.919 37.2546C105.911 36.0814 106.129 35.0506 106.575 34.1622C107.025 33.2689 107.669 32.5705 108.505 32.067C109.342 31.5585 110.339 31.2999 111.497 31.2911C112.497 31.2836 113.373 31.4584 114.126 31.8157C114.88 32.1729 115.478 32.678 115.92 33.3309C116.363 33.9839 116.61 34.7526 116.661 35.6372L113.663 35.6598C113.574 35.0888 113.347 34.6306 112.982 34.2853C112.621 33.9351 112.15 33.7621 111.568 33.7665C111.076 33.7702 110.647 33.9077 110.281 34.179C109.92 34.4452 109.64 34.8326 109.44 35.3412C109.24 35.8499 109.143 36.4646 109.148 37.1855C109.154 37.9163 109.258 38.537 109.46 39.0475C109.668 39.558 109.957 39.9461 110.327 40.2118C110.697 40.4775 111.128 40.6085 111.62 40.6048C111.983 40.602 112.308 40.525 112.595 40.3737C112.887 40.2223 113.127 40.0042 113.314 39.7194C113.505 39.4296 113.629 39.0831 113.686 38.68L116.684 38.6573C116.641 39.5327 116.408 40.3051 115.985 40.9745C115.568 41.6389 114.988 42.1603 114.245 42.5388C113.502 42.9173 112.621 43.1104 111.602 43.1181ZM123.703 39.5067L123.682 35.696L124.144 35.6925L127.78 31.3172L131.427 31.2897L126.541 37.0839L125.788 37.0896L123.703 39.5067ZM120.849 42.8245L120.734 27.5522L123.911 27.5282L124.026 42.8005L120.849 42.8245ZM128.008 42.7704L124.6 37.807L126.701 35.5464L131.729 42.7423L128.008 42.7704ZM139.922 42.9041C138.744 42.913 137.728 42.682 136.874 42.2112C136.025 41.7353 135.369 41.0592 134.905 40.1827C134.441 39.3012 134.204 38.2565 134.195 37.0484C134.186 35.8702 134.407 34.8344 134.857 33.941C135.308 33.0477 135.947 32.3493 136.773 31.8459C137.605 31.3424 138.582 31.0865 139.706 31.078C140.461 31.0723 141.166 31.1887 141.819 31.4274C142.477 31.6611 143.051 32.0172 143.542 32.4958C144.038 32.9743 144.425 33.5779 144.704 34.3066C144.983 35.0304 145.126 35.8795 145.134 36.8539L145.14 37.7264L135.468 37.7995L135.453 35.8308L142.135 35.7803C142.132 35.3229 142.029 34.9185 141.828 34.567C141.626 34.2155 141.348 33.9417 140.994 33.7455C140.644 33.5443 140.238 33.4455 139.776 33.449C139.293 33.4526 138.867 33.5677 138.496 33.7942C138.129 34.0157 137.843 34.3137 137.637 34.6882C137.431 35.0576 137.327 35.4686 137.326 35.921L137.34 37.7928C137.344 38.3595 137.452 38.8484 137.664 39.2595C137.881 39.6705 138.184 39.9864 138.574 40.2072C138.963 40.4279 139.424 40.5363 139.956 40.5323C140.309 40.5296 140.632 40.4775 140.924 40.3758C141.217 40.2742 141.467 40.1232 141.674 39.9227C141.881 39.7223 142.039 39.4775 142.146 39.1883L145.085 39.36C144.942 40.0671 144.641 40.6858 144.182 41.2163C143.729 41.7418 143.14 42.1539 142.417 42.4527C141.698 42.7465 140.866 42.897 139.922 42.9041ZM155.356 31.1088L155.374 33.4951L148.476 33.5473L148.458 31.161L155.356 31.1088ZM150.004 28.4049L153.18 28.3809L153.261 39.0596C153.263 39.3529 153.31 39.5812 153.401 39.7446C153.491 39.903 153.616 40.0139 153.776 40.0774C153.941 40.1408 154.13 40.1716 154.343 40.17C154.493 40.1689 154.642 40.1553 154.791 40.1294C154.94 40.0984 155.054 40.0752 155.133 40.0597L155.651 42.4198C155.492 42.4707 155.269 42.5296 154.981 42.5964C154.693 42.6682 154.343 42.7131 153.93 42.7311C153.165 42.7667 152.493 42.6699 151.915 42.4406C151.341 42.2112 150.893 41.8517 150.571 41.3619C150.25 40.8722 150.088 40.2519 150.088 39.5012L150.004 28.4049Z" fill="#181515"/>
<defs>
<filter id="filter0_d_419_10" x="0.927429" y="0.479919" width="177.145" height="83.5305" filterUnits="userSpaceOnUse" color-interpolation-filters="sRGB">
<feFlood flood-opacity="0" result="BackgroundImageFix"/>
<feColorMatrix in="SourceAlpha" type="matrix" values="0 0 0 0 0 0 0 0 0 0 0 0 0 0 0 0 0 0 127 0" result="hardAlpha"/>
<feMorphology radius="3" operator="dilate" in="SourceAlpha" result="effect1_dropShadow_419_10"/>
<feOffset dx="4" dy="4"/>
<feGaussianBlur stdDeviation="2"/>
<feComposite in2="hardAlpha" operator="out"/>
<feColorMatrix type="matrix" values="0 0 0 0 0 0 0 0 0 0 0 0 0 0 0 0 0 0 0.13 0"/>
<feBlend mode="normal" in2="BackgroundImageFix" result="effect1_dropShadow_419_10"/>
<feBlend mode="normal" in="SourceGraphic" in2="effect1_dropShadow_419_10" result="shape"/>
</filter>
</defs>
</svg>
