<svg width="319" height="383" viewBox="0 0 319 383" fill="none" xmlns="http://www.w3.org/2000/svg">
<g filter="url(#filter0_d_387_11)">
<rect x="11.1129" y="3" width="296.444" height="177.046" rx="10" transform="rotate(1.71235 11.1129 3)" fill="white"/>
<rect x="12.5675" y="4.54415" width="293.444" height="174.046" rx="8.5" transform="rotate(1.71235 12.5675 4.54415)" stroke="#CCCCCC" stroke-width="3"/>
</g>
<path d="M281.372 109.453L282.958 112.494L284.616 109.432L287.099 109.416L284.548 113.796L287.122 118.143L284.65 118.159L282.944 115.153L281.235 118.18L278.735 118.196L281.349 113.816L278.872 109.469L281.372 109.453Z" fill="black"/>
<path d="M116 163.318C151.426 46.8698 174.886 114.846 182.187 163.39" stroke="black" stroke-width="3"/>
<line x1="156.399" y1="25.0804" x2="150.399" y2="145.08" stroke="black" stroke-width="3"/>
<line x1="55.9428" y1="98.5061" x2="268.943" y2="104.506" stroke="black" stroke-width="3"/>
<path d="M163.668 35.6873C163.323 35.6873 162.999 35.6596 162.697 35.6042C162.398 35.5531 162.151 35.487 161.955 35.4061L162.569 33.3734C162.888 33.4714 163.176 33.5247 163.432 33.5332C163.692 33.5417 163.915 33.4821 164.103 33.3542C164.295 33.2264 164.45 33.0091 164.57 32.7022L164.729 32.2868L161.207 22.1873H164.071L166.104 29.3976H166.206L168.258 22.1873H171.141L167.325 33.0666C167.141 33.595 166.892 34.0552 166.577 34.4473C166.266 34.8436 165.871 35.1483 165.394 35.3613C164.917 35.5787 164.342 35.6873 163.668 35.6873Z" fill="black"/>
<defs>
<filter id="filter0_d_387_11" x="3.11679" y="0.294266" width="315.014" height="199.236" filterUnits="userSpaceOnUse" color-interpolation-filters="sRGB">
<feFlood flood-opacity="0" result="BackgroundImageFix"/>
<feColorMatrix in="SourceAlpha" type="matrix" values="0 0 0 0 0 0 0 0 0 0 0 0 0 0 0 0 0 0 127 0" result="hardAlpha"/>
<feMorphology radius="3" operator="dilate" in="SourceAlpha" result="effect1_dropShadow_387_11"/>
<feOffset dx="4" dy="4"/>
<feGaussianBlur stdDeviation="2"/>
<feComposite in2="hardAlpha" operator="out"/>
<feColorMatrix type="matrix" values="0 0 0 0 0 0 0 0 0 0 0 0 0 0 0 0 0 0 0.13 0"/>
<feBlend mode="normal" in2="BackgroundImageFix" result="effect1_dropShadow_387_11"/>
<feBlend mode="normal" in="SourceGraphic" in2="effect1_dropShadow_387_11" result="shape"/>
</filter>
</defs>
</svg>
