<svg width="179" height="85" viewBox="0 0 179 85" fill="none" xmlns="http://www.w3.org/2000/svg">
<g filter="url(#filter0_d_419_3)">
<rect width="162.976" height="69.4548" rx="10" transform="matrix(1.00046 -0.000968531 0.00190473 0.999095 3.90839 3.62808)" fill="white"/>
<rect x="1.50355" y="1.49719" width="159.976" height="66.4548" rx="8.5" transform="matrix(1.00046 -0.000968531 0.00190473 0.999095 3.90484 3.63089)" stroke="#CCCCCC" stroke-width="3"/>
</g>
<path d="M22.4785 43.5679L22.3631 28.2956L25.5399 28.2716L25.5832 34.0136L25.6802 34.0129C25.8171 33.7036 26.016 33.3889 26.2771 33.0687C26.5431 32.7435 26.8891 32.4724 27.315 32.2554C27.7459 32.0334 28.282 31.92 28.9233 31.9151C29.7585 31.9088 30.5307 32.1218 31.24 32.5539C31.9492 32.9811 32.5184 33.6306 32.9476 34.5024C33.3767 35.3692 33.5963 36.4588 33.6062 37.7713C33.6158 39.0489 33.4177 40.1293 33.0117 41.0124C32.6107 41.8904 32.0589 42.5583 31.3563 43.016C30.6587 43.4688 29.875 43.6984 29.0049 43.705C28.3885 43.7097 27.8632 43.6117 27.4292 43.4111C27.0001 43.2105 26.6477 42.9572 26.3719 42.651C26.0961 42.3399 25.8849 42.0258 25.7383 41.7087L25.5967 41.7097L25.6105 43.5442L22.4785 43.5679ZM25.5449 37.8173C25.55 38.4984 25.649 39.0917 25.8417 39.5974C26.0345 40.103 26.3109 40.4962 26.671 40.7769C27.031 41.0526 27.4671 41.1885 27.9791 41.1846C28.4962 41.1807 28.9326 41.0357 29.2884 40.7496C29.6441 40.4586 29.9121 40.0588 30.0922 39.5504C30.2772 39.0369 30.3672 38.447 30.3622 37.7809C30.3572 37.1197 30.2608 36.5387 30.0731 36.038C29.8854 35.5372 29.6115 35.1465 29.2514 34.8659C28.8913 34.5852 28.4502 34.4468 27.9282 34.4508C27.4112 34.4547 26.9748 34.5947 26.6189 34.8709C26.268 35.147 26 35.5368 25.8148 36.0403C25.6297 36.5439 25.5397 37.1362 25.5449 37.8173Z" fill="white"/>
<path d="M37.9287 43.4511L37.8132 28.1788L43.9281 28.1326C45.0517 28.1241 45.9901 28.2836 46.7433 28.611C47.4965 28.9384 48.0642 29.3965 48.4465 29.9852C48.8288 30.569 49.0228 31.2437 49.0286 32.0093C49.0331 32.6059 48.9177 33.1313 48.6825 33.5855C48.4473 34.0347 48.122 34.4051 47.7065 34.6966C47.296 34.9831 46.8253 35.188 46.2942 35.3113L46.2954 35.4605C46.8772 35.4809 47.4228 35.6409 47.9322 35.9403C48.4466 36.2397 48.8649 36.6616 49.1872 37.2061C49.5095 37.7455 49.6734 38.3906 49.6791 39.1413C49.6852 39.9517 49.4893 40.6765 49.0915 41.3159C48.6985 41.9503 48.1132 42.4544 47.3354 42.8282C46.5577 43.202 45.5971 43.3932 44.4537 43.4018L37.9287 43.4511ZM41.1377 40.7869L43.77 40.767C44.6699 40.7602 45.3248 40.5837 45.7349 40.2376C46.1449 39.8864 46.3477 39.4225 46.3433 38.8459C46.3401 38.4233 46.2354 38.0512 46.0291 37.7296C45.8228 37.408 45.5301 37.1566 45.1509 36.9755C44.7766 36.7944 44.331 36.7058 43.814 36.7097L41.107 36.7302L41.1377 40.7869ZM41.0905 34.5452L43.4842 34.5271C43.9267 34.5238 44.3189 34.4438 44.6607 34.2871C45.0075 34.1253 45.2793 33.8996 45.476 33.6097C45.6776 33.3198 45.7769 32.9735 45.7739 32.5709C45.7697 32.019 45.57 31.5756 45.1747 31.2405C44.7843 30.9053 44.2312 30.7405 43.5153 30.7459L41.0619 30.7644L41.0905 34.5452ZM60.9216 34.3804L60.9407 36.901L53.9757 36.9536L53.9566 34.4331L60.9216 34.3804ZM65.8554 43.2401L65.74 27.9678L71.8549 27.9216C72.9784 27.9131 73.9168 28.0725 74.67 28.4C75.4232 28.7274 75.991 29.1855 76.3733 29.7742C76.7555 30.358 76.9495 31.0327 76.9553 31.7983C76.9598 32.3948 76.8445 32.9202 76.6093 33.3744C76.374 33.8237 76.0487 34.194 75.6333 34.4855C75.2228 34.772 74.752 34.9769 74.221 35.1003L74.2221 35.2494C74.8039 35.2699 75.3496 35.4298 75.8589 35.7293C76.3733 36.0286 76.7916 36.4506 77.1139 36.995C77.4362 37.5345 77.6002 38.1796 77.6058 38.9303C77.612 39.7406 77.4161 40.4655 77.0182 41.1049C76.6253 41.7393 76.0399 42.2433 75.2622 42.6171C74.4844 42.9909 73.5239 43.1821 72.3804 43.1908L65.8554 43.2401ZM69.0644 40.5758L71.6968 40.5559C72.5966 40.5491 73.2516 40.3727 73.6616 40.0265C74.0716 39.6754 74.2744 39.2115 74.2701 38.6348C74.2669 38.2122 74.1621 37.8401 73.9559 37.5185C73.7496 37.1969 73.4568 36.9456 73.0776 36.7645C72.7034 36.5834 72.2577 36.4948 71.7407 36.4987L69.0337 36.5191L69.0644 40.5758ZM69.0172 34.3342L71.411 34.3161C71.8534 34.3127 72.2456 34.2327 72.5875 34.076C72.9343 33.9143 73.206 33.6885 73.4027 33.3987C73.6043 33.1088 73.7036 32.7625 73.7006 32.3598C73.6964 31.808 73.4967 31.3645 73.1014 31.0294C72.7111 30.6943 72.158 30.5294 71.4421 30.5349L68.9887 30.5534L69.0172 34.3342ZM86.956 43.3043C85.7977 43.3131 84.7941 43.0746 83.9452 42.5888C83.1013 42.098 82.4473 41.4119 81.9832 40.5304C81.5191 39.644 81.2827 38.6141 81.2738 37.4409C81.2648 36.2577 81.4857 35.2219 81.9364 34.3335C82.3871 33.4402 83.0306 32.7442 83.8671 32.2457C84.7085 31.7422 85.7083 31.486 86.8667 31.4773C88.025 31.4685 89.0262 31.7095 89.8701 32.2003C90.719 32.6861 91.3754 33.3722 91.8395 34.2587C92.3036 35.1401 92.5401 36.1725 92.549 37.3557C92.5579 38.5289 92.337 39.5622 91.8864 40.4556C91.4357 41.3439 90.7896 42.0399 89.9482 42.5434C89.1118 43.042 88.1144 43.2956 86.956 43.3043ZM86.9524 40.8434C87.4793 40.8394 87.9182 40.6869 88.2689 40.386C88.6196 40.08 88.8824 39.6654 89.0575 39.142C89.2375 38.6186 89.3249 38.0239 89.3199 37.3577C89.3149 36.6915 89.2184 36.0981 89.0305 35.5775C88.8476 35.0569 88.5785 34.6462 88.2233 34.3457C87.868 34.0451 87.4269 33.8968 86.8999 33.9007C86.368 33.9048 85.9217 34.0598 85.561 34.3658C85.2054 34.6717 84.9376 35.0864 84.7576 35.6098C84.5825 36.1332 84.4975 36.7279 84.5026 37.3941C84.5076 38.0603 84.6016 38.6537 84.7845 39.1743C84.9724 39.6949 85.2465 40.1055 85.6067 40.4061C85.9719 40.7016 86.4204 40.8474 86.9524 40.8434ZM106.226 34.7466L103.319 34.9475C103.267 34.6993 103.159 34.4764 102.993 34.2788C102.828 34.0762 102.61 33.9163 102.341 33.799C102.076 33.6767 101.76 33.6169 101.392 33.6197C100.9 33.6234 100.486 33.731 100.149 33.9423C99.8129 34.1487 99.6459 34.4234 99.6485 34.7664C99.6506 35.0399 99.7617 35.2702 99.9818 35.4575C100.202 35.6447 100.579 35.7935 101.111 35.9038L103.188 36.3058C104.303 36.5261 105.136 36.8877 105.687 37.3906C106.237 37.8936 106.516 38.5577 106.522 39.3829C106.528 40.1336 106.311 40.794 105.873 41.3641C105.44 41.9342 104.842 42.3812 104.079 42.7051C103.32 43.0241 102.444 43.1873 101.45 43.1948C99.9335 43.2063 98.7231 42.8997 97.8185 42.2751C96.9188 41.6456 96.3878 40.7845 96.2254 39.6919L99.3487 39.5043C99.4467 39.9659 99.678 40.3171 100.043 40.558C100.407 40.7939 100.873 40.9097 101.44 40.9054C101.997 40.9012 102.443 40.7909 102.78 40.5746C103.121 40.3533 103.293 40.0711 103.295 39.728C103.288 39.4397 103.165 39.2045 102.925 39.0223C102.685 38.8352 102.316 38.6938 101.818 38.5982L99.8312 38.2179C98.7109 38.0027 97.8753 37.6212 97.3242 37.0735C96.7782 36.5257 96.5019 35.8243 96.4955 34.9692C96.4899 34.2335 96.684 33.5981 97.0777 33.0632C97.4763 32.5282 98.0375 32.1138 98.7611 31.8199C99.4898 31.5261 100.344 31.3754 101.323 31.368C102.77 31.3571 103.911 31.6542 104.745 32.2594C105.585 32.8646 106.079 33.6937 106.226 34.7466ZM120.118 34.6416L117.211 34.8425C117.159 34.5943 117.05 34.3714 116.885 34.1738C116.719 33.9712 116.502 33.8113 116.232 33.694C115.968 33.5717 115.652 33.5119 115.284 33.5147C114.792 33.5184 114.377 33.626 114.041 33.8373C113.704 34.0437 113.537 34.3184 113.54 34.6615C113.542 34.9349 113.653 35.1652 113.873 35.3525C114.094 35.5398 114.47 35.6885 115.003 35.7989L117.079 36.2008C118.194 36.4211 119.028 36.7827 119.578 37.2856C120.129 37.7886 120.407 38.4527 120.414 39.278C120.419 40.0287 120.203 40.689 119.765 41.2591C119.332 41.8292 118.733 42.2762 117.97 42.6001C117.212 42.9191 116.336 43.0823 115.341 43.0898C113.825 43.1013 112.615 42.7947 111.71 42.1702C110.81 41.5406 110.279 40.6795 110.117 39.587L113.24 39.3993C113.338 39.8609 113.57 40.2122 113.934 40.453C114.299 40.6889 114.765 40.8047 115.332 40.8004C115.888 40.7962 116.335 40.686 116.671 40.4696C117.013 40.2483 117.185 39.9661 117.187 39.623C117.18 39.3347 117.056 39.0995 116.816 38.9174C116.576 38.7302 116.207 38.5889 115.709 38.4932L113.723 38.1129C112.603 37.8977 111.767 37.5162 111.216 36.9685C110.67 36.4208 110.394 35.7193 110.387 34.8643C110.381 34.1285 110.576 33.4931 110.969 32.9582C111.368 32.4232 111.929 32.0088 112.653 31.7149C113.381 31.4211 114.235 31.2704 115.215 31.263C116.661 31.2521 117.802 31.5493 118.637 32.1545C119.477 32.7596 119.97 33.5887 120.118 34.6416Z" fill="#181515"/>
<defs>
<filter id="filter0_d_419_3" x="0.927429" y="0.479919" width="177.145" height="83.5305" filterUnits="userSpaceOnUse" color-interpolation-filters="sRGB">
<feFlood flood-opacity="0" result="BackgroundImageFix"/>
<feColorMatrix in="SourceAlpha" type="matrix" values="0 0 0 0 0 0 0 0 0 0 0 0 0 0 0 0 0 0 127 0" result="hardAlpha"/>
<feMorphology radius="3" operator="dilate" in="SourceAlpha" result="effect1_dropShadow_419_3"/>
<feOffset dx="4" dy="4"/>
<feGaussianBlur stdDeviation="2"/>
<feComposite in2="hardAlpha" operator="out"/>
<feColorMatrix type="matrix" values="0 0 0 0 0 0 0 0 0 0 0 0 0 0 0 0 0 0 0.13 0"/>
<feBlend mode="normal" in2="BackgroundImageFix" result="effect1_dropShadow_419_3"/>
<feBlend mode="normal" in="SourceGraphic" in2="effect1_dropShadow_419_3" result="shape"/>
</filter>
</defs>
</svg>
